<?xml version="1.0" standalone="no"?>
<!DOCTYPE svg PUBLIC "-//W3C//DTD SVG 20010904//EN"
 "http://www.w3.org/TR/2001/REC-SVG-20010904/DTD/svg10.dtd">
<svg version="1.0" xmlns="http://www.w3.org/2000/svg"
 width="381.000000pt" height="324.000000pt" viewBox="0 0 381.000000 324.000000"
 preserveAspectRatio="xMidYMid meet">

<g transform="translate(0.000000,324.000000) scale(0.100000,-0.100000)"
fill="#000000" stroke="none">
<path d="M710 3051 c-87 -28 -139 -59 -197 -117 -96 -96 -163 -277 -163 -443
0 -103 57 -248 152 -388 25 -37 37 -45 106 -65 l77 -24 33 -93 c18 -52 37
-100 43 -108 14 -16 51 -17 66 -2 9 9 16 8 28 -5 9 -9 25 -16 36 -16 11 0 22
-7 25 -15 3 -8 15 -17 26 -21 19 -6 18 -8 -10 -37 -51 -55 -56 -72 -60 -238
-4 -148 5 -312 30 -537 9 -85 14 -102 27 -100 12 2 17 -7 19 -37 7 -106 44
-301 62 -331 29 -45 81 -68 144 -61 112 11 139 41 256 275 36 72 67 131 70
131 10 1 116 -141 156 -209 32 -54 44 -89 58 -167 l18 -98 -26 -108 c-25 -105
-31 -146 -21 -135 11 11 55 211 55 252 0 66 -26 179 -54 234 -13 26 -53 86
-88 132 -34 45 -69 91 -77 102 -8 10 -11 22 -7 26 4 4 12 -1 17 -10 29 -52 65
-79 166 -123 178 -78 164 -76 815 -66 315 5 574 9 575 7 12 -12 52 -359 54
-468 1 -52 6 -88 12 -88 18 0 -14 383 -43 514 -5 22 -7 44 -4 48 3 4 31 8 62
8 127 0 312 40 404 86 88 44 158 141 158 216 0 83 -99 222 -258 365 -95 84
-281 235 -311 253 -14 8 -14 10 1 22 15 12 7 22 -74 92 -327 286 -399 335
-597 410 -151 58 -509 138 -761 171 l-105 14 -77 80 -78 80 0 60 c0 48 -5 65
-23 88 -13 15 -27 44 -31 63 -11 59 -83 193 -130 243 -62 66 -135 113 -213
137 -86 27 -262 27 -343 1z m-170 -115 c0 -2 -8 -10 -17 -17 -16 -13 -17 -12
-4 4 13 16 21 21 21 13z m730 -296 c0 -5 -5 -10 -11 -10 -5 0 -7 5 -4 10 3 6
8 10 11 10 2 0 4 -4 4 -10z m132 -29 c30 -27 33 -34 32 -88 -1 -99 -63 -210
-111 -198 -13 3 -23 1 -23 -5 0 -5 13 -10 29 -10 34 0 83 50 100 103 l12 35
81 -84 c44 -46 87 -84 94 -84 18 0 19 3 -17 -125 -71 -250 -187 -497 -244
-519 -26 -9 -61 11 -84 48 l-22 36 27 67 c14 37 39 129 54 203 39 188 42 210
32 210 -4 0 -14 -35 -21 -77 -52 -311 -109 -443 -193 -443 -13 0 -58 20 -100
45 -43 25 -85 45 -95 45 -12 0 -5 8 20 25 20 14 37 30 37 35 0 15 -54 12 -76
-5 -26 -20 -61 -19 -73 2 -7 14 -4 26 15 51 27 34 30 82 6 90 -11 3 -12 0 -2
-18 10 -19 7 -29 -26 -77 -63 -92 -74 -86 -125 59 -31 90 -35 98 -64 104 -80
17 -134 45 -154 80 -27 45 -27 44 9 44 41 0 89 45 141 133 23 39 58 98 77 130
75 128 148 163 191 94 31 -50 62 -75 106 -83 46 -8 106 -36 152 -71 33 -25 51
-18 38 15 -19 44 -23 90 -14 134 6 26 15 48 21 48 5 0 7 -12 3 -30 -4 -19 -3
-30 4 -30 6 0 11 13 11 29 0 39 17 83 37 99 30 22 80 14 115 -17z m-704 -216
c-3 -3 -9 2 -12 12 -6 14 -5 15 5 6 7 -7 10 -15 7 -18z m1112 -141 c187 -31
482 -95 575 -124 113 -37 226 -87 303 -136 46 -29 192 -142 212 -164 3 -3 55
-49 117 -103 l112 -98 -88 -79 c-49 -44 -124 -124 -169 -178 -113 -138 -101
-133 -168 -74 -85 76 -167 89 -226 35 -31 -28 -19 -36 13 -9 56 47 129 31 218
-48 53 -47 65 -53 76 -36 4 6 10 6 18 0 7 -5 26 -20 42 -34 28 -22 122 -182
113 -192 -10 -10 -463 -115 -595 -138 -89 -16 -120 -5 -160 54 -51 76 -101
125 -167 164 -36 21 -66 43 -66 47 0 5 -7 9 -15 9 -8 0 -15 5 -15 10 0 6 4 10
9 10 17 0 3 78 -24 131 -17 35 -22 55 -15 63 6 9 5 19 -6 34 -17 24 -48 22
-91 -4 -30 -19 -29 -11 2 20 25 25 33 60 16 70 -16 10 -114 -15 -166 -43 -27
-14 -53 -27 -57 -29 -4 -2 -14 13 -22 33 -22 52 -50 45 -95 -27 -20 -31 -50
-74 -67 -97 -18 -23 -51 -93 -74 -156 -24 -63 -46 -115 -49 -114 -15 1 -95
109 -111 149 -21 53 -50 215 -50 276 0 24 -5 46 -11 50 -27 16 20 -275 56
-351 13 -27 44 -72 69 -98 25 -27 46 -53 46 -58 0 -5 -15 -25 -32 -44 -30 -30
-48 -38 -173 -69 -77 -19 -147 -36 -155 -38 -32 -7 -71 604 -47 744 6 33 19
59 46 89 l38 43 86 -43 c80 -41 88 -43 117 -31 17 7 35 20 41 29 9 14 11 14
22 -4 52 -84 107 -97 156 -38 73 88 173 326 227 538 22 90 20 87 56 81 18 -3
76 -13 128 -22z m1381 -720 c324 -247 502 -446 502 -562 0 -45 -30 -105 -73
-149 -64 -65 -210 -113 -400 -133 -247 -25 -1303 -42 -1380 -22 -47 12 -183
69 -237 100 -49 27 -100 92 -81 103 7 4 22 -8 38 -29 21 -28 47 -45 109 -71
45 -19 84 -32 86 -29 3 3 -32 22 -79 43 -82 36 -135 83 -121 105 10 16 21 12
35 -15 10 -19 35 -31 108 -55 52 -17 97 -28 100 -26 5 6 -11 13 -113 47 -91
30 -120 65 -73 86 17 8 29 5 56 -14 19 -12 51 -27 71 -33 44 -12 111 -13 111
-1 0 15 -22 27 -99 56 l-73 28 30 30 c23 22 34 28 44 20 22 -17 140 -53 175
-53 52 0 43 30 -27 91 -33 29 -60 55 -60 58 0 3 12 19 25 34 l25 28 43 -29
c23 -16 75 -50 114 -76 45 -28 84 -62 100 -87 16 -23 45 -60 65 -83 35 -39 39
-41 95 -40 61 0 210 32 553 116 187 45 215 50 325 50 102 0 111 1 60 8 -33 4
-82 8 -108 9 -37 1 -54 7 -75 27 -15 14 -65 53 -112 86 -47 34 -100 72 -118
85 l-32 24 62 77 c62 76 235 252 248 252 4 0 40 -25 81 -56z m-1617 -108 c10
-37 9 -38 -52 -92 -34 -31 -62 -60 -62 -66 0 -5 36 22 79 60 81 72 177 126
244 137 29 5 37 3 37 -9 0 -18 -27 -46 -44 -46 -14 0 -173 -117 -195 -144 -10
-11 -11 -20 -4 -27 7 -7 42 11 109 57 119 81 189 113 207 95 14 -14 -47 -74
-185 -183 -43 -34 -78 -65 -78 -70 0 -10 146 99 208 156 40 37 44 38 59 23 16
-15 13 -20 -33 -64 -27 -27 -79 -74 -114 -105 -36 -32 -60 -58 -53 -58 6 0 48
27 91 60 80 60 102 70 102 49 0 -25 -210 -215 -292 -263 -46 -28 -91 -57 -101
-65 -10 -8 -54 -86 -99 -173 -117 -230 -145 -262 -233 -268 -66 -5 -86 1 -120
33 -33 30 -37 39 -54 142 -10 61 -22 142 -26 181 l-7 71 127 32 c70 17 129 30
131 28 5 -5 -101 -106 -135 -130 -14 -9 -22 -19 -18 -23 9 -9 70 42 148 123
83 86 91 99 130 208 47 134 82 208 121 251 20 21 45 58 57 82 26 51 42 50 55
-2z m1415 -320 c45 -35 78 -67 73 -70 -5 -3 -26 -8 -48 -11 l-39 -6 -37 75
c-20 42 -35 76 -34 76 2 0 40 -29 85 -64z m-1051 -121 c-3 -9 -48 -8 -57 1 -2
2 1 10 7 17 9 10 8 17 -1 27 -6 8 3 3 21 -10 19 -14 32 -29 30 -35z m-198 -65
c61 -22 111 -49 65 -37 -11 4 -40 11 -65 17 -25 6 -56 20 -70 31 -27 23 -25
22 70 -11z"/>
<path d="M1323 2563 c-23 -9 -13 -18 20 -18 28 0 32 -4 35 -27 3 -22 0 -27
-12 -22 -9 3 -14 10 -11 14 7 11 -16 18 -38 12 -27 -7 -19 -62 10 -73 20 -7
21 -6 13 17 -14 36 -12 66 2 37 6 -13 15 -23 20 -23 4 0 8 -5 8 -11 0 -5 -5
-7 -11 -3 -7 4 -10 1 -7 -7 3 -8 -8 -28 -25 -46 -27 -28 -28 -33 -13 -39 19
-7 36 5 40 28 1 8 10 27 19 42 29 44 32 81 8 105 -21 21 -34 24 -58 14z m7
-96 c0 -5 -4 -5 -10 -2 -5 3 -10 14 -10 23 0 15 2 15 10 2 5 -8 10 -19 10 -23z"/>
<path d="M909 2272 c-15 -9 -45 -30 -68 -46 -33 -23 -51 -29 -97 -28 -38 0
-54 -3 -51 -11 12 -37 129 -10 190 43 23 20 51 42 62 48 14 8 16 11 5 12 -8 0
-27 -8 -41 -18z"/>
<path d="M938 2149 c-10 -10 -36 -22 -59 -25 l-42 -7 26 -13 c34 -19 71 -4 92
36 17 34 9 38 -17 9z"/>
<path d="M675 2118 c10 -17 26 -28 39 -27 14 0 16 2 6 6 -8 3 -26 15 -39 27
l-24 21 18 -27z"/>
<path d="M600 2114 c0 -17 57 -67 72 -61 9 4 8 6 -4 6 -9 1 -28 16 -42 34 -14
17 -26 27 -26 21z"/>
</g>
</svg>
