<?xml version="1.0" standalone="no"?>
<!DOCTYPE svg PUBLIC "-//W3C//DTD SVG 20010904//EN"
 "http://www.w3.org/TR/2001/REC-SVG-20010904/DTD/svg10.dtd">
<svg version="1.0" xmlns="http://www.w3.org/2000/svg"
 width="473.000000pt" height="275.000000pt" viewBox="0 0 473.000000 275.000000"
 preserveAspectRatio="xMidYMid meet">

<g transform="translate(0.000000,275.000000) scale(0.100000,-0.100000)"
fill="#000000" stroke="none">
<path d="M0 1375 l0 -1375 490 0 490 0 0 23 c0 12 12 54 26 92 37 99 38 110
19 139 -10 14 -14 26 -11 26 4 0 -5 12 -19 27 -14 15 -25 31 -25 36 0 4 -8 20
-19 35 -10 15 -28 43 -40 62 l-22 35 6 -38 c3 -23 1 -36 -4 -32 -6 3 -7 -6 -2
-22 4 -16 6 -34 4 -40 -8 -22 -23 -14 -23 10 0 13 -5 50 -12 81 -8 43 -17 60
-32 66 -17 7 -18 9 -3 9 13 1 17 10 17 40 0 22 -5 41 -10 43 -7 2 -5 22 4 56
11 44 11 54 0 59 -7 2 -10 11 -7 19 3 8 1 14 -5 14 -6 0 -8 9 -5 19 3 11 1 27
-5 36 -8 15 -11 12 -22 -16 -7 -19 -12 -38 -11 -42 1 -5 -3 -6 -8 -3 -5 3 -16
-5 -25 -18 -13 -21 -13 -26 -1 -36 8 -7 15 -17 15 -23 0 -6 -7 -1 -16 11 -15
22 -17 23 -35 6 -11 -10 -17 -24 -15 -31 3 -7 2 -12 -3 -10 -10 2 -70 -51 -89
-79 -11 -17 -12 -17 -6 6 4 13 38 59 77 102 51 56 85 106 122 182 53 107 60
136 20 90 -12 -14 -25 -22 -29 -16 -3 5 3 17 14 27 11 10 18 26 15 35 -3 11 9
26 40 48 25 18 50 32 55 32 8 0 40 51 40 64 0 3 -6 3 -14 0 -9 -3 -12 -12 -9
-21 4 -11 2 -14 -5 -9 -34 21 2 129 59 178 11 9 35 60 54 112 19 53 39 105 45
116 6 12 10 29 7 38 -2 12 -8 7 -19 -18 l-16 -35 2 36 c0 21 4 35 7 33 4 -2
14 11 22 29 12 25 14 51 10 109 -4 55 -2 87 10 119 44 124 84 201 146 283 89
118 144 206 130 206 -6 0 -13 -9 -16 -20 -4 -14 -12 -19 -33 -16 -22 2 -27 0
-23 -13 4 -14 3 -14 -6 -1 -6 8 -11 34 -11 58 0 31 4 42 15 42 13 0 15 10 14
48 -2 37 -9 54 -33 79 -17 18 -43 35 -58 39 -16 3 -28 9 -28 14 0 5 -15 11
-32 15 -32 6 -108 29 -218 66 -30 10 -71 21 -90 24 -81 13 -236 48 -252 56
-10 5 -29 9 -43 9 -13 0 -68 11 -122 25 -86 22 -120 25 -270 25 l-173 0 0
-1375z m1326 853 c-9 -12 -16 -19 -16 -15 0 11 24 47 28 42 2 -2 -3 -14 -12
-27z m-556 -1302 c0 -3 -4 -8 -10 -11 -5 -3 -10 -1 -10 4 0 6 5 11 10 11 6 0
10 -2 10 -4z m4 -242 c3 -8 2 -12 -4 -9 -6 3 -10 10 -10 16 0 14 7 11 14 -7z
m-254 -75 c0 -69 -10 -86 -30 -50 -14 26 -13 104 2 119 20 20 28 2 28 -69z
m418 -240 c13 -16 21 -29 18 -29 -7 0 -56 46 -56 54 0 14 16 3 38 -25z"/>
<path d="M1484 2456 c-6 -6 -9 -17 -6 -24 2 -7 -2 -11 -10 -10 -8 2 -12 -4
-10 -16 2 -11 -1 -15 -7 -11 -6 3 -11 1 -11 -5 0 -22 24 -3 43 34 20 38 20 53
1 32z"/>
<path d="M1400 2414 c0 -21 17 -25 22 -6 3 11 0 19 -8 19 -8 0 -14 -6 -14 -13z"/>
<path d="M1381 2404 c0 -11 3 -14 6 -6 3 7 2 16 -1 19 -3 4 -6 -2 -5 -13z"/>
<path d="M1920 2380 l-25 -8 28 -1 c15 -1 27 -5 27 -9 0 -5 -13 -7 -30 -4 -40
6 -38 -12 3 -26 30 -10 28 -11 -28 -11 -33 1 -66 0 -72 0 -18 -1 -16 -18 3
-25 10 -4 13 -2 8 7 -5 9 -4 9 7 0 7 -7 21 -13 31 -13 10 0 18 -4 18 -10 0 -5
-4 -9 -9 -7 -10 2 -11 -2 -11 -30 0 -15 2 -16 10 -3 11 17 10 17 40 -37 14
-26 31 -43 42 -43 25 0 83 -37 66 -42 -7 -3 2 -5 21 -5 30 0 32 2 15 14 -10 7
-13 13 -7 13 6 0 21 -10 34 -23 13 -12 37 -28 53 -35 27 -12 28 -12 15 4 -13
16 -12 16 8 6 23 -12 53 -7 53 10 0 5 -4 6 -10 3 -5 -3 -10 -2 -10 3 0 5 -10
14 -22 20 -21 10 -21 11 12 12 30 1 32 3 15 11 -14 6 -6 8 30 4 l50 -5 -47 22
c-25 11 -48 28 -51 37 -2 9 -5 21 -6 26 -1 6 -11 13 -22 17 -33 13 -21 27 19
21 26 -4 34 -2 27 5 -13 15 -121 42 -164 42 -24 0 -32 3 -25 10 8 8 30 8 75 1
85 -14 100 -13 64 5 l-30 14 30 -5 c25 -4 27 -4 12 6 -11 6 -33 8 -53 5 -27
-6 -34 -4 -34 9 0 10 -10 15 -32 15 -18 0 -49 2 -68 5 -19 2 -46 0 -60 -5z
m70 -60 c-19 -13 -30 -13 -30 0 0 6 10 10 23 10 18 0 19 -2 7 -10z"/>
<path d="M1390 2365 c0 -8 5 -15 10 -15 6 0 10 7 10 15 0 8 -4 15 -10 15 -5 0
-10 -7 -10 -15z"/>
<path d="M1860 2371 c0 -6 4 -13 10 -16 6 -3 7 1 4 9 -7 18 -14 21 -14 7z"/>
<path d="M2597 2359 c7 -7 15 -10 18 -7 3 3 -2 9 -12 12 -14 6 -15 5 -6 -5z"/>
<path d="M2635 2350 c3 -5 12 -7 20 -3 21 7 19 13 -6 13 -11 0 -18 -4 -14 -10z"/>
<path d="M2783 2353 c4 -6 -17 -10 -53 -10 -56 0 -80 -6 -68 -18 3 -3 22 -6
42 -7 20 -1 40 -6 43 -11 4 -6 -13 -8 -45 -5 l-51 5 27 -33 c15 -18 32 -33 38
-33 13 -1 44 -34 44 -47 0 -5 -4 -4 -8 1 -4 6 -16 17 -26 25 -15 11 -13 5 7
-25 15 -22 27 -45 27 -52 0 -7 4 -13 9 -13 6 0 9 -8 8 -18 0 -10 14 -39 32
-64 24 -34 31 -50 24 -63 -8 -13 -13 -9 -28 24 -23 53 -48 76 -36 34 14 -49
72 -183 83 -189 5 -3 13 -17 18 -30 5 -13 17 -24 25 -24 9 0 20 -10 25 -22 l9
-23 0 22 c1 12 -3 25 -9 28 -13 8 -13 28 1 23 6 -2 23 -33 39 -68 17 -38 36
-66 46 -69 21 -4 60 -39 52 -47 -4 -3 -16 0 -28 6 -20 10 -21 10 -16 -8 4 -11
3 -23 -2 -26 -5 -3 -7 -27 -4 -53 5 -48 5 -48 -16 -30 -12 11 -26 16 -34 12
-10 -6 -11 -5 0 6 20 21 12 96 -9 83 -5 -3 -9 3 -10 13 0 11 -3 13 -6 5 -3 -7
3 -22 12 -32 12 -13 14 -26 9 -42 -7 -23 -7 -23 -20 7 -25 59 -13 -2 27 -135
22 -74 53 -162 68 -195 48 -103 54 -120 37 -106 -12 10 -14 9 -9 -9 4 -14 11
-19 20 -15 11 3 13 1 10 -10 -7 -16 15 -69 54 -130 34 -53 40 -73 26 -79 -7
-4 -1 -4 13 -1 20 3 26 0 26 -14 0 -11 -6 -17 -13 -14 -7 3 -13 0 -13 -7 0
-21 20 -50 35 -50 8 0 14 -5 12 -12 -1 -7 14 -13 38 -15 86 -8 137 64 100 138
l-17 34 22 -22 c14 -13 26 -40 31 -70 9 -57 -3 -80 -61 -122 -22 -16 -37 -31
-35 -35 3 -3 2 -4 -2 -1 -8 6 -33 -14 -33 -26 0 -18 21 -8 62 29 39 34 41 35
21 7 -11 -16 -30 -39 -42 -49 -12 -11 -21 -28 -21 -38 0 -23 -16 -56 -41 -84
-12 -12 -22 -45 -27 -80 -6 -47 -11 -59 -25 -58 -9 1 -17 -4 -17 -11 0 -7 -9
-23 -20 -36 l-20 -24 -23 28 c-12 15 -25 27 -29 27 -15 0 -16 -51 -1 -114 18
-82 13 -143 -16 -184 -26 -38 -26 -43 2 -75 22 -27 24 -27 160 -27 100 0 137
3 137 12 0 9 3 9 12 0 9 -9 174 -12 680 -12 l668 0 0 1155 c0 880 -3 1155 -12
1155 -23 0 -78 -24 -78 -35 0 -5 -28 -21 -62 -35 -61 -24 -71 -25 -272 -23
-242 1 -400 15 -579 49 -70 13 -149 24 -175 24 -27 0 -118 14 -203 31 -133 27
-182 32 -363 36 -134 4 -207 2 -203 -4z m94 -29 c-3 -3 -12 -4 -19 -1 -8 3 -5
6 6 6 11 1 17 -2 13 -5z m-92 -14 c-3 -5 -11 -10 -16 -10 -6 0 -7 5 -4 10 3 6
11 10 16 10 6 0 7 -4 4 -10z m16 -217 c13 -16 12 -17 -3 -4 -17 13 -22 21 -14
21 2 0 10 -8 17 -17z m89 -243 c18 -42 9 -45 -11 -4 -9 19 -13 34 -9 34 4 0
13 -14 20 -30z m260 -199 c-1 -13 -3 -13 -15 3 -19 26 -19 42 0 26 8 -7 15
-20 15 -29z m-25 -152 c-14 -22 -30 -39 -36 -39 -5 0 2 17 16 37 14 21 28 60
32 88 l8 50 3 -49 c3 -38 -2 -56 -23 -87z m1423 -1153 c7 -8 -11 -35 -26 -39
-9 -3 -25 -8 -34 -12 -21 -8 -22 2 -8 40 9 23 14 26 38 20 15 -4 28 -8 30 -9z
m-775 -151 c9 -18 9 -19 -6 -6 -10 7 -17 23 -16 35 0 14 2 16 6 6 3 -8 10 -24
16 -35z m626 -44 c9 -6 11 -18 7 -35 -8 -31 -17 -33 -41 -6 -15 16 -15 22 -5
35 14 17 20 18 39 6z"/>
<path d="M1730 2328 c0 -9 7 -19 16 -22 25 -10 27 -1 4 19 -17 15 -20 16 -20
3z"/>
<path d="M1702 2288 c-23 -23 -5 -134 24 -145 8 -3 14 -11 14 -18 0 -8 5 -17
12 -21 7 -4 8 -3 4 4 -10 16 7 15 23 0 11 -11 12 -8 6 12 -7 22 -6 23 9 11 9
-7 16 -10 16 -7 0 4 9 2 21 -4 18 -10 19 -9 11 7 -6 10 -20 26 -32 36 -11 10
-18 22 -15 27 3 6 -1 7 -10 4 -10 -4 -14 -1 -12 7 2 8 2 11 0 6 -3 -4 -9 -5
-14 -1 -5 3 -9 0 -9 -6 0 -6 10 -15 23 -20 15 -6 17 -9 6 -9 -9 -1 -22 6 -29
14 -11 13 -15 13 -21 3 -7 -10 -9 -10 -9 0 0 18 4 27 12 25 13 -5 22 49 11 65
-13 21 -26 25 -41 10z"/>
<path d="M1805 2280 c3 -4 14 -10 25 -13 11 -3 18 -2 15 3 -3 4 -14 10 -25 13
-11 3 -18 2 -15 -3z"/>
<path d="M1623 2249 c-14 -35 -10 -37 11 -5 9 14 12 27 8 30 -5 3 -13 -8 -19
-25z"/>
<path d="M1760 2261 c0 -13 29 -35 37 -28 7 8 -15 37 -28 37 -5 0 -9 -4 -9 -9z"/>
<path d="M1671 2223 c-1 -12 -6 -23 -13 -25 -14 -5 -3 -38 12 -38 7 0 9 8 5
21 -5 15 -4 19 4 15 13 -8 13 1 1 29 -8 19 -9 19 -9 -2z"/>
<path d="M1820 2231 c0 -11 39 -41 53 -41 13 0 -12 29 -35 41 -12 6 -18 6 -18
0z"/>
<path d="M1550 2208 c-12 -22 -12 -22 6 -6 10 10 15 20 12 24 -4 3 -12 -5 -18
-18z"/>
<path d="M2690 2211 c0 -6 4 -13 10 -16 6 -3 7 1 4 9 -7 18 -14 21 -14 7z"/>
<path d="M1840 2183 c1 -19 22 -38 62 -54 24 -10 35 -18 25 -18 -10 -1 -27 4
-39 10 -27 14 -38 1 -14 -17 25 -18 75 -19 72 -1 -3 26 -34 57 -69 72 -20 8
-37 12 -37 8z"/>
<path d="M1666 2137 c3 -10 9 -15 12 -12 3 3 0 11 -7 18 -10 9 -11 8 -5 -6z"/>
<path d="M1962 2139 c2 -6 14 -16 26 -20 29 -11 28 -5 -4 16 -17 11 -25 12
-22 4z"/>
<path d="M1535 2103 c-12 -42 -15 -63 -10 -63 6 0 27 81 22 86 -3 3 -8 -8 -12
-23z"/>
<path d="M2640 2086 c0 -13 29 -56 33 -49 7 12 -11 53 -23 53 -5 0 -10 -2 -10
-4z"/>
<path d="M2387 2069 c7 -7 15 -10 18 -7 3 3 -2 9 -12 12 -14 6 -15 5 -6 -5z"/>
<path d="M2622 2018 c-7 -18 -21 -44 -31 -58 l-20 -25 -23 21 c-33 30 -77 51
-123 58 l-40 6 36 -17 c20 -10 51 -31 69 -46 28 -24 31 -31 23 -50 -7 -15 -6
-37 1 -67 9 -37 16 -46 38 -50 15 -3 36 -13 47 -22 11 -9 22 -14 25 -11 3 4 6
-1 6 -11 0 -9 7 -19 15 -22 8 -3 19 -22 26 -41 8 -26 14 -32 20 -22 7 12 9 12
9 0 0 -25 13 -2 20 36 l7 38 8 -54 c6 -40 10 -49 17 -37 12 20 -1 146 -14 146
-5 0 -7 4 -4 9 8 12 -13 73 -32 91 -13 13 -14 12 -9 -10 4 -14 2 -31 -2 -38
-13 -21 -20 22 -17 92 2 34 2 49 -1 33 -2 -15 -15 -45 -27 -67 l-23 -40 -11
25 c-10 22 -8 33 13 73 24 46 33 92 17 92 -4 0 -13 -15 -20 -32z m37 -215 c-1
-45 -1 -46 -10 -18 -8 27 -4 65 7 65 2 0 4 -21 3 -47z"/>
<path d="M1408 1851 c-29 -53 -48 -141 -29 -141 7 0 9 -18 6 -51 -6 -58 16
-149 40 -169 8 -7 12 -17 8 -24 -3 -6 -2 -8 2 -3 13 11 16 41 18 147 1 52 -2
105 -7 117 l-9 23 -14 -26 c-7 -15 -14 -40 -14 -58 -2 -28 -2 -27 -8 9 -5 29
-2 47 10 65 21 31 34 100 20 100 -7 0 -7 9 0 26 16 43 6 36 -23 -15z m-1 -263
c-3 -8 -6 -5 -6 6 -1 11 2 17 5 13 3 -3 4 -12 1 -19z m30 -10 c-3 -8 -6 -5 -6
6 -1 11 2 17 5 13 3 -3 4 -12 1 -19z"/>
<path d="M1677 1674 c-1 -2 -22 -4 -45 -5 -23 -2 -42 -7 -42 -11 0 -5 -11 -21
-25 -36 -27 -28 -31 -42 -15 -42 6 0 10 4 10 9 0 6 8 9 18 9 9 -1 37 4 60 11
37 10 52 10 97 -5 58 -18 79 -42 44 -51 -19 -5 -18 -7 11 -20 42 -17 34 -26
-11 -13 -19 6 -46 8 -61 4 -39 -8 -35 3 5 15 20 6 25 10 12 10 -41 2 -95 -21
-119 -50 -34 -40 -33 -55 7 -67 41 -13 138 -21 132 -12 -5 9 29 20 61 20 12 0
28 -10 37 -22 15 -22 16 -22 34 -5 21 21 27 112 8 139 -20 30 -88 79 -101 74
-8 -3 -21 5 -31 18 -15 19 -76 40 -86 30z m118 -183 c3 -5 1 -12 -5 -16 -5 -3
-10 1 -10 9 0 18 6 21 15 7z"/>
<path d="M2194 1635 c21 -16 103 -31 114 -20 15 14 -34 35 -82 35 -46 -1 -49
-2 -32 -15z"/>
<path d="M2580 1628 c0 -5 28 -129 40 -178 7 -27 10 -98 8 -175 -4 -121 -6
-134 -35 -191 -29 -57 -29 -62 -15 -90 8 -16 22 -38 32 -49 10 -11 28 -38 40
-60 20 -37 21 -38 16 -10 -11 64 -16 166 -8 161 4 -3 7 7 6 22 -10 89 -10 401
-1 395 7 -4 8 0 2 13 -4 10 -9 28 -10 39 -2 25 -21 62 -51 98 -13 16 -24 27
-24 25z"/>
<path d="M1300 1549 c0 -18 -2 -19 -15 -9 -13 11 -15 8 -15 -19 0 -18 -6 -39
-14 -46 -19 -19 -32 -113 -17 -128 6 -6 14 -7 18 -3 4 4 2 11 -5 15 -9 5 -11
20 -6 49 4 23 10 39 14 37 5 -3 6 -15 3 -26 -5 -19 -4 -20 15 -10 18 9 21 8
19 -8 0 -11 -4 -18 -8 -15 -4 2 -10 -3 -13 -12 -3 -8 -2 -12 4 -9 11 7 2 -51
-11 -75 -6 -11 -8 -8 -9 12 0 21 -5 26 -20 25 -17 -1 -20 -9 -21 -47 -1 -43
-1 -44 -12 -19 -9 20 -15 24 -23 15 -13 -14 -16 -52 -16 -216 1 -194 51 -366
145 -490 44 -59 75 -89 92 -90 11 0 74 78 94 118 7 13 10 30 7 38 -3 8 -1 14
3 14 5 0 11 -5 13 -12 2 -6 10 -8 17 -4 9 6 9 11 -1 24 -11 13 -10 14 15 8 20
-5 27 -3 27 9 0 8 7 15 15 15 24 0 18 13 -31 60 -25 25 -64 71 -87 102 -40 54
-57 64 -117 70 -8 0 -18 6 -22 12 -5 7 -12 8 -21 1 -45 -32 -64 -44 -84 -49
-19 -6 -23 -2 -28 26 -3 18 -2 59 3 91 5 31 5 57 0 57 -4 0 -8 7 -8 16 0 8 5
12 11 8 7 -4 9 0 5 12 -3 11 -2 25 2 31 11 18 68 -24 83 -60 15 -37 31 -16 23
30 -4 20 2 56 16 97 26 78 45 89 98 54 20 -14 45 -27 54 -31 9 -3 25 -18 35
-34 10 -15 33 -41 51 -56 17 -16 32 -37 32 -47 0 -20 -31 -80 -41 -80 -22 0
46 -90 130 -174 l99 -97 -4 -82 c-8 -148 -26 -259 -70 -444 -24 -100 -44 -187
-44 -193 0 -6 56 -10 160 -10 l160 0 0 28 c0 17 -8 32 -21 40 -11 7 -18 19
-15 27 2 7 -2 16 -10 19 -8 3 -14 17 -14 31 0 14 -7 28 -16 32 -8 3 -13 11
-11 18 3 6 -1 38 -9 71 -24 101 -16 195 25 299 9 21 14 26 20 16 6 -9 10 -1
14 25 9 70 21 99 38 89 5 -4 9 -2 9 2 0 23 149 81 160 63 3 -5 12 6 19 26 9
24 18 34 27 30 10 -4 14 4 14 31 0 20 4 50 9 67 5 17 15 49 21 71 6 22 14 47
17 55 5 13 4 13 -10 2 -8 -7 -28 -52 -43 -100 -37 -118 -55 -146 -112 -170
-62 -27 -154 -53 -148 -43 6 10 -68 81 -84 81 -5 0 -10 -4 -10 -10 0 -16 -50
-11 -78 8 -15 10 -38 23 -52 30 -14 7 -30 23 -35 35 -6 12 -18 22 -27 22 -10
0 -22 5 -29 12 -16 16 -21 78 -10 120 15 53 -13 108 -93 186 -39 38 -66 73
-66 85 0 11 -3 22 -8 24 -4 2 -17 16 -30 32 -22 28 -22 29 -22 5 -1 -23 -2
-22 -29 10 -15 19 -33 31 -39 27 -6 -3 -12 3 -14 16 -2 13 -9 22 -16 20 -10
-2 -11 2 -4 14 11 19 4 54 -10 54 -5 0 -6 15 -2 35 3 19 3 35 0 35 -3 0 -6
-10 -6 -21z m40 -240 c0 -6 7 -9 15 -6 8 4 17 2 20 -3 4 -6 1 -10 -4 -10 -6 0
-11 -6 -11 -14 0 -8 -13 -27 -29 -43 -23 -23 -28 -36 -24 -58 5 -21 3 -26 -7
-20 -10 6 -12 1 -8 -19 6 -29 -3 -34 -22 -11 -7 8 -10 15 -7 15 3 0 1 14 -5
30 -7 22 -7 34 2 44 6 8 10 20 9 28 -3 19 19 68 31 68 5 0 10 -7 10 -15 0 -8
5 -15 11 -15 6 0 9 9 6 20 -3 11 -1 20 4 20 5 0 9 -5 9 -11z m20 -418 c18 -34
12 -38 -47 -30 -31 4 -60 6 -65 3 -4 -3 -8 -1 -8 5 0 5 21 16 48 24 62 20 60
20 72 -2z m-30 -61 c0 -11 -4 -20 -9 -20 -5 0 -11 9 -14 20 -3 13 0 20 9 20 8
0 14 -9 14 -20z m-45 0 c3 -5 1 -10 -4 -10 -6 0 -11 5 -11 10 0 6 2 10 4 10 3
0 8 -4 11 -10z m165 -60 c0 -5 -7 -10 -15 -10 -8 0 -15 5 -15 10 0 6 7 10 15
10 8 0 15 -4 15 -10z m-8 -42 c22 -26 24 -33 13 -45 -19 -18 -28 -16 -23 5 3
10 -1 27 -8 37 -8 10 -14 13 -14 7 0 -7 -12 -12 -26 -12 -16 0 -23 -4 -18 -12
4 -7 3 -8 -5 -4 -14 9 -5 26 14 26 8 0 17 4 20 10 4 6 -3 9 -16 7 -12 -1 -24
4 -27 12 -9 27 61 3 90 -31z m43 -68 c3 -5 -1 -10 -10 -10 -9 0 -13 5 -10 10
3 6 8 10 10 10 2 0 7 -4 10 -10z m-85 -18 c0 -13 -12 -22 -22 -16 -10 6 -1 24
13 24 5 0 9 -4 9 -8z m-57 -21 c3 -13 1 -18 -9 -14 -7 2 -10 11 -7 19 7 19 10
18 16 -5z"/>
<path d="M2174 1546 c-35 -15 -54 -38 -37 -43 6 -2 8 -13 6 -25 -4 -11 0 -24
8 -29 21 -13 33 -11 20 4 -6 8 -8 17 -4 20 11 11 23 8 23 -6 0 -7 6 -21 13
-31 12 -17 17 -17 100 1 48 9 87 21 87 25 0 6 -117 63 -132 63 -3 0 -10 3 -14
8 -4 4 6 7 22 8 29 1 29 1 4 9 -37 12 -61 11 -96 -4z m93 -68 c-3 -8 -6 -5 -6
6 -1 11 2 17 5 13 3 -3 4 -12 1 -19z m58 -18 c-3 -5 -11 -10 -16 -10 -6 0 -7
5 -4 10 3 6 11 10 16 10 6 0 7 -4 4 -10z"/>
<path d="M1354 1483 c4 -34 26 -80 25 -53 0 8 -7 31 -15 50 l-13 35 3 -32z"/>
<path d="M1170 1350 c-1 -14 -4 -36 -6 -50 -4 -23 -4 -24 12 -8 14 14 15 23 7
50 -10 30 -11 31 -13 8z"/>
<path d="M1893 1353 c-3 -10 -16 -27 -29 -38 -41 -36 -39 -59 7 -104 41 -39
43 -40 56 -21 8 11 21 20 30 20 13 0 12 5 -7 25 -33 35 -53 33 -45 -5 7 -34
-4 -39 -28 -12 -23 25 -22 37 13 94 33 53 35 58 20 58 -6 0 -13 -8 -17 -17z"/>
<path d="M2035 1250 c-8 -12 20 -24 35 -15 5 3 10 10 10 16 0 12 -37 12 -45
-1z"/>
<path d="M990 1228 c-12 -22 -12 -22 6 -6 10 10 15 20 12 24 -4 3 -12 -5 -18
-18z"/>
<path d="M956 1215 c-40 -61 -39 -106 1 -47 17 23 29 72 19 72 -2 0 -11 -11
-20 -25z"/>
<path d="M2896 1185 c8 -37 14 -45 14 -19 0 10 -5 26 -10 34 -8 11 -9 7 -4
-15z"/>
<path d="M2881 1134 c0 -11 3 -14 6 -6 3 7 2 16 -1 19 -3 4 -6 -2 -5 -13z"/>
<path d="M2915 1137 c-10 -24 3 -83 21 -98 9 -7 11 -15 5 -18 -17 -11 12 -56
39 -59 23 -4 23 -4 6 22 -9 15 -14 30 -12 35 3 5 -1 14 -9 21 -8 7 -17 28 -21
49 -4 20 -10 43 -15 51 -6 13 -9 12 -14 -3z"/>
<path d="M2433 1132 c-20 -12 -17 -35 11 -95 16 -34 30 -83 33 -118 3 -32 9
-59 13 -59 15 0 20 64 8 104 -6 22 -11 61 -11 86 1 36 -4 47 -21 57 -11 7 -15
12 -8 13 6 0 12 5 12 10 0 12 -20 13 -37 2z"/>
<path d="M1907 1089 c-26 -30 -27 -34 -10 -40 17 -6 17 -7 1 -14 -9 -4 -22 -4
-28 0 -6 4 -20 -1 -30 -10 -18 -16 -18 -20 -6 -44 8 -14 17 -34 20 -45 6 -16
13 -18 54 -12 26 4 69 8 97 9 35 1 56 8 74 25 23 21 23 22 3 22 -15 0 -20 5
-16 14 3 8 12 12 20 9 7 -3 17 2 20 11 4 10 11 13 21 8 18 -10 73 -3 73 9 0 5
-8 13 -17 16 -10 4 -34 17 -54 30 -22 14 -55 25 -85 27 -27 2 -62 6 -79 10
-26 6 -34 3 -58 -25z m82 -113 c8 -9 8 -16 2 -20 -6 -4 -15 3 -21 14 -12 23 2
27 19 6z"/>
<path d="M2355 1112 c-10 -7 -15 -342 -5 -342 7 0 33 129 32 155 -2 56 -2 152
0 169 3 20 -11 30 -27 18z"/>
<path d="M1431 1064 c-25 -42 -28 -65 -6 -43 14 13 39 79 30 79 -2 0 -12 -16
-24 -36z"/>
<path d="M2891 1084 c0 -11 3 -14 6 -6 3 7 2 16 -1 19 -3 4 -6 -2 -5 -13z"/>
<path d="M865 1018 c-52 -38 -55 -42 -26 -33 26 8 78 51 71 58 -3 3 -23 -9
-45 -25z"/>
<path d="M3120 981 c0 -6 4 -13 10 -16 6 -3 7 1 4 9 -7 18 -14 21 -14 7z"/>
<path d="M2702 960 c0 -14 2 -19 5 -12 2 6 2 18 0 25 -3 6 -5 1 -5 -13z"/>
<path d="M1152 930 c0 -19 2 -27 5 -17 2 9 2 25 0 35 -3 9 -5 1 -5 -18z"/>
<path d="M2950 935 c0 -8 2 -15 4 -15 2 0 11 -3 20 -6 23 -9 20 13 -4 26 -16
9 -20 8 -20 -5z"/>
<path d="M896 915 c-3 -8 -1 -15 4 -15 6 0 10 7 10 15 0 8 -2 15 -4 15 -2 0
-6 -7 -10 -15z"/>
<path d="M2680 906 c0 -8 4 -17 9 -20 5 -4 7 3 4 14 -6 23 -13 26 -13 6z"/>
<path d="M866 815 c4 -8 8 -15 10 -15 2 0 4 7 4 15 0 8 -4 15 -10 15 -5 0 -7
-7 -4 -15z"/>
<path d="M1108 802 c-2 -18 -1 -35 4 -38 14 -9 21 25 11 49 -9 21 -10 20 -15
-11z"/>
<path d="M3358 805 c-16 -13 -28 -27 -28 -30 0 -12 40 16 50 35 14 25 11 25
-22 -5z"/>
<path d="M2646 774 c-22 -26 -26 -38 -17 -47 6 -6 11 -7 11 -1 0 5 4 2 9 -5 6
-9 6 -22 0 -33 -7 -14 -2 -26 25 -55 19 -21 37 -35 41 -32 3 4 -2 14 -11 23
-28 28 -7 30 23 2 43 -40 48 -31 10 17 -43 53 -75 139 -45 121 8 -5 9 -2 5 10
-4 10 -7 22 -7 27 0 17 -15 8 -44 -27z"/>
<path d="M1081 744 c0 -11 3 -14 6 -6 3 7 2 16 -1 19 -3 4 -6 -2 -5 -13z"/>
<path d="M2585 700 c-17 -19 -18 -22 -2 -37 19 -19 35 -10 19 10 -14 17 -6 28
15 20 10 -4 14 -2 11 7 -7 22 -23 22 -43 0z"/>
<path d="M1141 684 c0 -11 3 -14 6 -6 3 7 2 16 -1 19 -3 4 -6 -2 -5 -13z"/>
<path d="M2537 662 c-21 -23 -21 -32 -3 -32 19 0 36 23 27 38 -6 9 -12 8 -24
-6z"/>
<path d="M2575 610 c-3 -5 -1 -10 4 -10 6 0 11 5 11 10 0 6 -2 10 -4 10 -3 0
-8 -4 -11 -10z"/>
<path d="M2660 617 c0 -14 43 -77 53 -77 6 0 8 -3 4 -6 -3 -3 -22 2 -42 11
-40 20 -56 14 -31 -10 19 -19 21 -29 4 -19 -8 5 -9 2 -5 -10 5 -11 3 -15 -4
-10 -7 4 -10 1 -7 -7 3 -8 20 -15 42 -16 30 -1 39 3 46 20 7 17 9 18 9 5 1 -9
-5 -23 -12 -30 -12 -11 -12 -16 -1 -26 7 -7 18 -12 24 -12 7 0 7 -7 -1 -22
-12 -23 -12 -23 10 -4 25 23 27 36 5 36 -13 0 -14 3 -5 13 6 8 7 17 3 22 -4 4
7 5 23 1 77 -15 96 -16 90 -6 -4 6 -13 9 -20 6 -7 -2 -23 6 -35 19 l-23 24 23
-4 c12 -2 28 -9 34 -14 13 -11 66 6 66 22 0 12 -38 8 -44 -5 -5 -10 -7 -10
-12 0 -3 6 -15 12 -26 12 -24 0 -113 45 -145 74 -13 11 -23 17 -23 13z"/>
<path d="M2421 593 c-7 -13 -10 -14 -11 -4 0 11 -11 12 -52 8 -28 -4 -54 -10
-57 -15 -3 -4 -25 -18 -49 -29 -34 -17 -50 -19 -75 -12 -49 14 -47 10 16 -22
33 -17 55 -34 51 -40 -3 -6 16 1 42 15 27 14 53 26 58 26 5 0 31 16 57 35 27
19 49 30 49 25 0 -6 7 -10 16 -10 11 0 14 5 10 16 -3 9 -6 18 -6 20 0 12 -41
1 -49 -13z"/>
<path d="M3227 586 c-10 -8 -14 -17 -9 -20 5 -3 17 3 27 14 21 23 9 26 -18 6z"/>
<path d="M860 539 c0 -17 4 -28 10 -24 6 3 10 17 10 31 0 13 -4 24 -10 24 -5
0 -10 -14 -10 -31z"/>
<path d="M2503 554 c-7 -3 -9 -12 -6 -20 7 -18 23 -18 23 0 0 8 6 17 13 19 8
4 7 5 -3 5 -8 0 -20 -2 -27 -4z"/>
<path d="M1250 526 c8 -8 26 -17 40 -21 21 -5 20 -3 -8 14 -37 24 -53 27 -32
7z"/>
<path d="M2573 517 c-15 -13 -36 -26 -45 -30 -14 -5 -15 -12 -8 -36 5 -19 5
-31 -1 -31 -5 0 -9 -7 -9 -15 0 -8 7 -15 15 -15 8 0 14 3 13 8 -2 4 1 7 5 7 5
0 15 12 23 28 8 15 19 27 24 27 13 0 13 -17 1 -24 -8 -5 -8 -27 -1 -46 1 -3 2
-13 1 -22 -3 -27 6 -22 23 12 8 17 11 30 7 30 -11 0 -10 33 2 48 7 9 7 16 -1
24 -9 9 -12 9 -12 0 0 -7 -4 -12 -10 -12 -16 0 -12 37 6 54 24 25 -1 19 -33
-7z"/>
<path d="M2360 490 c0 -5 5 -10 10 -10 6 0 10 5 10 10 0 6 -4 10 -10 10 -5 0
-10 -4 -10 -10z"/>
<path d="M1335 480 c-3 -5 3 -10 14 -10 12 0 21 -4 21 -9 0 -5 -8 -8 -17 -6
-10 1 -12 0 -5 -2 6 -3 12 -8 12 -13 0 -5 7 -7 15 -4 21 8 19 31 -4 44 -24 12
-28 13 -36 0z"/>
<path d="M2203 464 c34 -18 35 -28 2 -22 -13 3 -22 1 -19 -3 7 -12 41 -11 49
0 6 10 -32 41 -50 41 -5 -1 2 -8 18 -16z"/>
<path d="M2446 453 c-6 -14 -5 -15 5 -6 7 7 10 15 7 18 -3 3 -9 -2 -12 -12z"/>
<path d="M1238 453 c7 -3 16 -2 19 1 4 3 -2 6 -13 5 -11 0 -14 -3 -6 -6z"/>
<path d="M2332 440 c-18 -30 -16 -43 7 -30 11 5 19 19 18 30 -2 25 -9 25 -25
0z"/>
<path d="M2642 443 c4 -20 30 -28 56 -18 15 6 15 7 -3 18 -34 19 -57 19 -53 0z"/>
<path d="M1241 420 c-13 -11 -18 -20 -13 -20 6 0 19 -16 28 -35 16 -34 16 -37
-2 -50 -17 -13 -17 -14 -2 -15 16 0 98 86 98 104 0 15 -34 35 -60 35 -14 0
-36 -9 -49 -19z"/>
<path d="M2971 402 c-8 -15 -6 -23 9 -37 19 -18 20 -17 20 13 0 37 -15 50 -29
24z"/>
<path d="M2650 390 c0 -11 4 -20 9 -20 5 0 11 9 14 20 3 13 0 20 -9 20 -8 0
-14 -9 -14 -20z"/>
<path d="M2859 383 c-13 -16 -12 -17 4 -4 16 13 21 21 13 21 -2 0 -10 -8 -17
-17z"/>
<path d="M2691 374 c0 -11 3 -14 6 -6 3 7 2 16 -1 19 -3 4 -6 -2 -5 -13z"/>
<path d="M2424 367 c-3 -9 -10 -14 -15 -11 -5 3 -17 0 -26 -5 -14 -8 -9 -10
25 -11 43 0 48 4 32 30 -8 12 -10 12 -16 -3z"/>
<path d="M2336 362 c-2 -4 -1 -14 3 -21 6 -9 10 -7 14 8 5 20 -7 29 -17 13z"/>
<path d="M2520 351 c0 -5 5 -13 10 -16 6 -3 10 -2 10 4 0 5 -4 13 -10 16 -5 3
-10 2 -10 -4z"/>
<path d="M2588 338 c-21 -10 -38 -23 -38 -28 0 -13 17 -13 25 0 4 6 14 8 23 5
11 -3 22 3 29 15 17 27 4 30 -39 8z"/>
<path d="M2480 302 c0 -4 6 -14 13 -21 10 -11 10 -14 0 -18 -7 -3 -13 -13 -13
-24 0 -10 -4 -19 -10 -19 -5 0 -10 6 -10 13 0 7 -13 20 -29 30 -29 17 -29 17
-44 -12 -13 -26 -13 -33 -1 -48 13 -17 14 -17 8 0 -3 9 -1 17 5 17 17 0 13
-27 -7 -47 -29 -27 -33 -52 -17 -81 53 -92 45 -87 123 -90 l72 -3 20 47 c11
26 18 55 15 64 -3 9 1 23 10 30 8 7 15 18 15 24 0 6 -5 4 -10 -4 -8 -12 -9 -9
-8 12 1 15 6 26 10 25 4 -1 23 20 43 48 38 53 31 74 -11 31 -14 -14 -34 -28
-43 -31 -19 -6 -38 -37 -43 -70 -2 -13 -12 -21 -31 -23 -18 -2 -32 -13 -42
-33 -9 -16 -19 -29 -24 -29 -14 0 -22 30 -12 47 4 9 6 24 3 35 -3 13 2 21 16
25 14 3 19 10 15 21 -5 14 -4 15 8 4 12 -11 11 -15 -4 -26 -14 -11 -15 -15 -4
-19 8 -3 21 9 33 30 11 21 32 42 50 49 33 14 52 41 28 41 -8 0 -14 -5 -14 -10
0 -6 -3 -8 -6 -4 -3 3 -17 2 -31 -4 -16 -6 -22 -6 -18 1 3 6 -1 10 -9 10 -9 0
-16 5 -16 10 0 6 -7 10 -15 10 -8 0 -15 -4 -15 -8z"/>
<path d="M2320 174 c0 -5 7 -18 15 -28 8 -11 15 -16 15 -10 0 5 -7 18 -15 28
-8 11 -15 16 -15 10z"/>
<path d="M2535 170 c3 -5 8 -10 11 -10 2 0 4 5 4 10 0 6 -5 10 -11 10 -5 0 -7
-4 -4 -10z"/>
</g>
</svg>
