<?xml version="1.0" standalone="no"?>
<!DOCTYPE svg PUBLIC "-//W3C//DTD SVG 20010904//EN"
 "http://www.w3.org/TR/2001/REC-SVG-20010904/DTD/svg10.dtd">
<svg version="1.0" xmlns="http://www.w3.org/2000/svg"
 width="387.000000pt" height="324.000000pt" viewBox="0 0 387.000000 324.000000"
 preserveAspectRatio="xMidYMid meet">

<g transform="translate(0.000000,324.000000) scale(0.100000,-0.100000)"
fill="#000000" stroke="none">
<path d="M1480 3075 c-451 -52 -861 -173 -1297 -385 -148 -72 -183 -92 -183
-109 0 -15 4 -19 18 -13 29 12 107 54 112 61 5 6 42 24 172 85 31 14 62 26 67
26 6 0 11 4 11 8 0 4 17 14 38 21 20 7 61 24 89 37 29 13 65 26 80 30 16 4 33
9 38 13 6 3 15 6 20 7 6 2 42 14 80 27 67 24 121 40 320 92 88 23 287 59 395
71 30 3 66 7 80 10 77 12 372 15 500 5 547 -44 987 -221 1330 -536 73 -66 218
-231 237 -270 9 -16 21 -33 27 -37 6 -5 7 -8 1 -8 -6 0 -5 -3 1 -8 17 -11 86
-138 126 -232 45 -107 82 -224 99 -317 7 -40 17 -73 21 -73 4 0 8 75 8 167 l0
167 -41 81 c-309 600 -828 950 -1589 1070 -147 24 -590 29 -760 10z"/>
<path d="M1629 3036 c-2 -2 -47 -7 -99 -10 -52 -3 -115 -8 -140 -11 -75 -10
-284 -47 -300 -53 -8 -3 -19 -7 -25 -7 -80 -12 -433 -119 -505 -153 -19 -9
-39 -17 -45 -18 -5 0 -32 -11 -60 -24 -27 -13 -53 -24 -57 -24 -3 -1 -10 -4
-14 -8 -4 -5 -16 -8 -26 -8 -10 0 -18 -4 -18 -10 0 -5 -9 -10 -19 -10 -11 0
-26 -7 -34 -15 -8 -7 -33 -22 -56 -32 -22 -10 -41 -21 -41 -25 0 -4 -6 -5 -14
-2 -7 3 -20 -2 -29 -10 -8 -8 -17 -12 -21 -9 -3 4 -6 1 -6 -5 0 -7 -7 -12 -15
-12 -8 0 -15 -4 -15 -10 0 -5 -3 -9 -7 -8 -5 1 -25 -9 -45 -22 -34 -23 -38
-29 -38 -69 0 -43 0 -43 22 -28 40 28 209 123 304 171 353 177 755 296 1144
336 141 14 419 12 557 -5 381 -47 709 -172 968 -370 126 -95 286 -265 363
-385 51 -79 145 -281 175 -375 33 -102 54 -203 61 -285 5 -50 2 -41 -14 43
-66 362 -257 682 -538 905 -115 91 -160 121 -262 172 -47 24 -87 47 -90 50 -3
4 -23 13 -45 22 -22 9 -65 27 -95 41 -125 56 -297 102 -500 134 -158 25 -543
24 -715 -1 -456 -66 -887 -229 -1312 -497 -14 -8 -23 -24 -23 -38 0 -21 2 -22
18 -10 16 13 16 13 -1 -7 -9 -11 -17 -24 -17 -27 0 -13 29 -7 37 7 15 26 270
166 303 166 11 0 20 4 20 10 0 8 48 38 67 42 5 0 37 14 71 30 35 15 67 28 70
28 4 1 25 9 46 19 22 11 46 17 53 14 7 -3 19 2 27 10 8 8 54 26 103 41 48 15
114 36 146 45 31 10 57 15 57 11 0 -4 -39 -20 -87 -34 -184 -57 -217 -71 -224
-97 -5 -16 -7 -18 -8 -6 -1 9 -5 17 -10 17 -11 0 -134 -46 -158 -59 -10 -5
-48 -24 -86 -41 -37 -18 -65 -36 -62 -41 4 -5 0 -6 -7 -4 -15 6 -102 -34 -155
-69 -26 -18 -30 -25 -20 -36 10 -12 9 -12 -5 -1 -14 10 -23 9 -55 -8 -68 -35
-79 -46 -63 -65 12 -16 11 -16 -14 -5 -38 18 -47 3 -44 -73 l3 -66 90 60 c341
225 801 407 1180 467 223 35 490 44 680 22 750 -87 1270 -512 1417 -1156 15
-66 21 -140 25 -280 6 -211 -11 -350 -63 -530 -65 -222 -218 -537 -341 -701
-13 -17 -23 -34 -23 -37 0 -4 23 -7 50 -7 33 0 50 4 50 13 0 8 3 7 10 -3 8
-12 10 -12 15 2 4 10 3 22 -1 29 -4 7 -3 9 3 6 14 -9 37 19 27 34 -4 7 -3 9 2
6 5 -3 22 24 38 59 16 35 31 62 34 60 2 -3 -17 -48 -42 -102 -46 -94 -52 -120
-21 -94 10 8 15 9 15 1 0 -7 25 -11 69 -11 l69 0 43 67 c63 100 172 318 214
430 20 54 41 105 45 113 19 39 86 287 104 384 18 99 28 282 23 416 -10 270
-61 470 -179 698 -99 193 -272 397 -438 519 -36 26 -67 50 -70 53 -3 3 -14 10
-25 17 -11 7 -53 33 -94 58 -40 25 -76 45 -80 45 -3 0 -22 8 -41 19 -40 21
-158 70 -240 99 -63 22 -234 63 -360 87 -118 22 -546 45 -561 31z m-41 -143
c-16 -2 -40 -2 -55 0 -16 2 -3 4 27 4 30 0 43 -2 28 -4z m-148 -14 c-130 -18
-266 -41 -323 -55 -33 -8 -64 -13 -70 -11 -31 11 318 75 403 75 l55 0 -65 -9z
m265 -9 c-3 -6 4 -10 16 -10 43 0 13 -8 -49 -14 -37 -4 -61 -2 -58 3 3 5 22 8
41 7 22 -1 35 3 35 11 0 7 5 13 11 13 5 0 7 -4 4 -10z m108 -17 c-13 -2 -33
-2 -45 0 -13 2 -3 4 22 4 25 0 35 -2 23 -4z m-230 -10 c-13 -2 -35 -2 -50 0
-16 2 -5 4 22 4 28 0 40 -2 28 -4z m397 0 c-14 -3 -32 -10 -40 -16 -13 -11
-13 -10 -1 6 7 9 25 16 40 16 l26 -2 -25 -4z m-525 -13 c-16 -4 -44 -8 -62 -9
-24 -1 -36 -8 -48 -28 l-15 -28 6 29 c5 19 3 27 -4 22 -5 -3 -45 -13 -89 -21
-117 -23 -118 -23 -159 -34 -52 -15 -64 -13 -34 4 14 8 58 20 98 26 39 7 72
15 72 18 0 4 19 6 43 7 42 1 117 11 123 16 1 2 24 4 51 5 40 1 43 0 18 -7z
m563 -2 c-7 -7 -22 -20 -33 -28 -15 -10 -14 -7 4 13 14 15 29 27 33 27 5 0 3
-6 -4 -12z m-868 -24 c-97 -16 -251 -58 -388 -104 -171 -57 -160 -54 -142 -41
24 18 285 100 415 131 153 37 158 38 170 31 6 -3 -19 -10 -55 -17z m940 22 c0
-3 -4 -8 -10 -11 -5 -3 -10 -1 -10 4 0 6 5 11 10 11 6 0 10 -2 10 -4z m37 -2
c-3 -3 -12 -4 -19 -1 -8 3 -5 6 6 6 11 1 17 -2 13 -5z m-1136 -31 c-25 -7 -61
-15 -80 -18 -28 -5 -24 -2 19 14 30 11 58 17 62 15 5 -3 8 -1 8 5 0 6 8 7 18
4 12 -5 6 -10 -27 -20z m1192 20 c-7 -2 -21 -2 -30 0 -10 3 -4 5 12 5 17 0 24
-2 18 -5z m134 1 c-3 -3 -12 -4 -19 -1 -8 3 -5 6 6 6 11 1 17 -2 13 -5z m-74
-11 c-7 -2 -21 -2 -30 0 -10 3 -4 5 12 5 17 0 24 -2 18 -5z m44 -9 c-3 -3 -12
-4 -19 -1 -8 3 -5 6 6 6 11 1 17 -2 13 -5z m170 -20 c-3 -3 -12 -4 -19 -1 -8
3 -5 6 6 6 11 1 17 -2 13 -5z m-1587 -8 c0 -11 -19 -15 -25 -6 -3 5 1 10 9 10
9 0 16 -2 16 -4z m-120 -41 c-46 -18 -64 -17 -25 0 17 8 37 14 45 14 8 0 -1
-7 -20 -14z m1865 -6 c15 -14 -7 -10 -35 7 l-25 15 25 -7 c14 -3 29 -10 35
-15z m45 -19 c8 -5 11 -10 5 -10 -5 0 -17 5 -25 10 -8 5 -10 10 -5 10 6 0 17
-5 25 -10z m-2050 -24 c-14 -7 -36 -16 -50 -20 -14 -3 -7 3 15 13 45 22 73 27
35 7z m2130 -11 c28 -14 50 -28 50 -30 0 -5 -99 42 -109 51 -12 11 15 1 59
-21z m-140 -15 c8 -5 11 -10 5 -10 -5 0 -17 5 -25 10 -8 5 -10 10 -5 10 6 0
17 -5 25 -10z m260 -56 c0 -2 -13 2 -30 11 -16 9 -30 18 -30 21 0 2 14 -2 30
-11 17 -9 30 -18 30 -21z m-2440 2 c0 -2 -7 -7 -16 -10 -8 -3 -12 -2 -9 4 6
10 25 14 25 6z m2475 -24 c-3 -3 -11 0 -18 7 -9 10 -8 11 6 5 10 -3 15 -9 12
-12z m131 -94 c4 -7 -9 1 -29 16 -20 16 -37 30 -37 33 0 7 58 -36 66 -49z
m-2716 38 c0 -2 -7 -7 -16 -10 -8 -3 -12 -2 -9 4 6 10 25 14 25 6z m-100 -52
c-106 -61 -174 -96 -165 -86 13 14 187 111 200 111 6 1 -10 -11 -35 -25z
m2860 -19 c13 -14 21 -25 18 -25 -2 0 -15 11 -28 25 -13 14 -21 25 -18 25 2 0
15 -11 28 -25z m80 -70 c13 -14 21 -25 18 -25 -2 0 -15 11 -28 25 -13 14 -21
25 -18 25 2 0 15 -11 28 -25z m30 -80 c13 -14 21 -25 18 -25 -2 0 -15 11 -28
25 -13 14 -21 25 -18 25 2 0 15 -11 28 -25z m51 -62 c13 -16 12 -17 -3 -4 -17
13 -22 21 -14 21 2 0 10 -8 17 -17z m326 -645 c-3 -8 -6 -5 -6 6 -1 11 2 17 5
13 3 -3 4 -12 1 -19z m10 -60 c-3 -7 -5 -2 -5 12 0 14 2 19 5 13 2 -7 2 -19 0
-25z m18 -296 c-3 -73 -10 -143 -15 -155 -6 -14 -7 1 -2 43 4 36 7 135 6 220
0 128 1 144 8 90 5 -36 6 -125 3 -198z m22 116 c-2 -18 -4 -4 -4 32 0 36 2 50
4 33 2 -18 2 -48 0 -65z m-132 -678 c-9 -28 -19 -50 -21 -48 -2 2 4 27 13 56
9 28 19 50 21 47 2 -2 -4 -27 -13 -55z m-272 -555 c-3 -9 -8 -14 -10 -11 -3 3
-2 9 2 15 9 16 15 13 8 -4z m-15 -50 c-3 -3 -9 2 -12 12 -6 14 -5 15 5 6 7 -7
10 -15 7 -18z m-27 -28 c-10 -9 -11 -8 -5 6 3 10 9 15 12 12 3 -3 0 -11 -7
-18z"/>
<path d="M1510 2693 c-8 -4 -21 -13 -28 -22 -12 -14 -13 -14 -8 2 4 13 0 17
-18 17 -15 0 -26 -7 -29 -20 -5 -18 0 -20 49 -20 30 0 54 4 54 9 0 5 3 16 6
25 6 17 0 19 -26 9z"/>
<path d="M1550 2691 c0 -5 -3 -16 -6 -24 -4 -11 1 -13 20 -10 34 7 43 43 10
43 -13 0 -24 -4 -24 -9z"/>
<path d="M1606 2684 c-9 -23 -8 -24 14 -24 10 0 24 9 30 20 9 17 8 20 -14 20
-13 0 -27 -7 -30 -16z"/>
<path d="M1661 2682 c-10 -19 -5 -20 96 -27 97 -7 108 -5 120 11 19 26 1 31
-114 33 -82 2 -93 0 -102 -17z m59 -2 c0 -5 -5 -10 -11 -10 -5 0 -7 5 -4 10 3
6 8 10 11 10 2 0 4 -4 4 -10z m52 -12 c-7 -7 -12 -8 -12 -2 0 14 12 26 19 19
2 -3 -1 -11 -7 -17z m60 0 c-7 -7 -12 -8 -12 -2 0 14 12 26 19 19 2 -3 -1 -11
-7 -17z"/>
<path d="M1393 2682 c-13 -2 -23 -10 -23 -18 0 -8 -4 -14 -10 -14 -5 0 -7 7
-3 16 8 22 -26 15 -41 -8 -14 -23 -9 -25 46 -20 37 3 47 8 52 25 6 25 7 24
-21 19z"/>
<path d="M1902 2678 c-17 -17 -15 -38 4 -38 16 0 43 27 44 43 0 11 -35 8 -48
-5z"/>
<path d="M1952 2660 c-13 -22 -8 -24 76 -34 24 -3 48 -8 53 -12 5 -3 18 5 29
18 11 13 19 18 20 11 0 -6 -5 -15 -11 -19 -8 -5 -6 -10 6 -16 15 -9 12 -15
-26 -54 -23 -24 -39 -47 -35 -51 4 -5 27 15 51 42 33 38 50 49 67 47 28 -3 68
32 46 40 -7 3 -55 13 -106 23 -90 18 -93 17 -114 -1 -21 -19 -21 -19 -9 4 11
20 9 22 -11 22 -13 0 -29 -9 -36 -20z m110 -22 c-7 -7 -12 -8 -12 -2 0 14 12
26 19 19 2 -3 -1 -11 -7 -17z"/>
<path d="M1263 2663 c-7 -2 -13 -13 -13 -24 0 -15 4 -17 23 -10 12 5 23 16 25
25 3 16 -11 19 -35 9z"/>
<path d="M1208 2653 c-10 -2 -18 -14 -18 -25 0 -14 5 -18 16 -14 9 3 20 6 25
6 5 0 9 9 9 20 0 20 -2 21 -32 13z"/>
<path d="M1148 2643 c-10 -2 -18 -14 -18 -25 0 -14 5 -18 16 -14 9 3 20 6 25
6 5 0 9 9 9 20 0 20 -2 21 -32 13z"/>
<path d="M1092 2629 c-13 -5 -20 -13 -17 -19 3 -5 2 -10 -4 -10 -5 0 -11 5
-13 11 -2 7 -18 6 -51 -2 -35 -10 -47 -18 -47 -32 0 -14 5 -17 20 -12 18 6 20
2 20 -34 0 -31 4 -41 16 -41 12 0 15 9 12 43 l-3 42 45 11 c34 8 46 16 48 32
2 12 2 22 0 21 -2 0 -13 -4 -26 -10z"/>
<path d="M2231 2607 l-20 -21 100 -37 c98 -37 102 -38 125 -21 13 9 24 19 24
22 0 3 -21 13 -47 23 -41 15 -48 16 -63 2 -23 -21 -37 -19 -17 3 16 17 14 19
-32 34 -47 15 -50 15 -70 -5z m64 -17 c-3 -5 -11 -10 -16 -10 -6 0 -7 5 -4 10
3 6 11 10 16 10 6 0 7 -4 4 -10z m100 -40 c-10 -11 -21 -18 -23 -15 -3 3 3 12
14 20 27 20 30 18 9 -5z"/>
<path d="M913 2583 c-7 -2 -13 -12 -13 -21 0 -14 -2 -14 -9 -3 -11 18 -51 5
-51 -17 0 -14 -2 -14 -9 -3 -8 12 -16 12 -55 -3 -25 -10 -46 -24 -46 -32 0
-20 11 -18 122 18 75 25 98 36 98 50 0 18 -13 21 -37 11z m-128 -63 c3 -5 1
-10 -4 -10 -6 0 -11 5 -11 10 0 6 2 10 4 10 3 0 8 -4 11 -10z"/>
<path d="M1490 2554 c-13 -4 -60 -65 -60 -79 0 -17 28 1 48 30 15 23 30 35 45
35 21 -1 21 -1 3 -15 -10 -8 -24 -16 -29 -18 -16 -5 0 -37 18 -37 10 0 15 7
13 18 -2 9 5 21 17 27 31 16 25 40 -10 42 -16 0 -37 -1 -45 -3z"/>
<path d="M1591 2519 c-39 -47 -35 -64 5 -23 25 27 27 27 21 7 -3 -13 -2 -23 1
-23 13 1 57 40 45 40 -6 0 -9 9 -6 20 9 36 -31 23 -66 -21z"/>
<path d="M1338 2534 c-30 -16 -52 -49 -43 -64 9 -15 52 -12 85 5 32 16 55 50
45 65 -9 15 -56 11 -87 -6z m52 -7 c0 -30 -53 -67 -65 -47 -7 11 38 60 55 60
5 0 10 -6 10 -13z"/>
<path d="M1684 2535 c-10 -8 -15 -15 -10 -15 4 0 1 -11 -8 -25 -22 -33 2 -35
30 -2 45 51 48 57 27 57 -10 0 -28 -7 -39 -15z"/>
<path d="M1763 2507 c-29 -18 -53 -36 -53 -40 0 -4 7 -4 16 1 18 10 61 4 70
-9 11 -18 24 -8 39 27 8 20 15 40 15 45 0 17 -35 7 -87 -24z m41 -12 c-7 -17
-20 -20 -28 -6 -4 5 0 12 6 14 23 9 28 7 22 -8z"/>
<path d="M2446 2521 c-16 -17 -15 -19 15 -31 17 -8 68 -35 112 -62 44 -26 86
-48 92 -48 7 0 23 8 35 18 l23 19 -72 41 c-79 46 -157 82 -176 82 -6 0 -19 -8
-29 -19z m64 -16 c-7 -8 -17 -15 -22 -15 -6 0 -5 7 2 15 7 8 17 15 22 15 6 0
5 -7 -2 -15z m44 -29 c-10 -8 -21 -12 -24 -10 -5 6 21 24 34 24 6 0 1 -6 -10
-14z m56 -26 c-24 -15 -37 -11 -16 5 11 8 22 12 25 9 3 -3 -1 -9 -9 -14z m50
-30 c-24 -15 -37 -11 -16 5 11 8 22 12 25 9 3 -3 -1 -9 -9 -14z"/>
<path d="M1255 2510 c-8 -24 -21 -26 -29 -5 -11 29 -45 17 -61 -21 -17 -42
-18 -44 -7 -44 5 0 15 12 22 28 l12 27 11 -22 c15 -35 46 -29 63 12 17 40 17
45 5 45 -5 0 -13 -9 -16 -20z"/>
<path d="M1885 2486 c-22 -19 -38 -36 -35 -39 12 -11 80 -17 80 -7 0 5 -10 10
-22 10 -20 0 -19 4 17 35 32 28 36 34 20 34 -11 1 -38 -15 -60 -33z"/>
<path d="M677 2498 c-11 -9 -14 -18 -8 -27 12 -18 53 3 45 24 -7 18 -15 19
-37 3z"/>
<path d="M626 2477 c-11 -8 -16 -19 -12 -25 15 -24 53 -3 39 22 -8 14 -12 14
-27 3z"/>
<path d="M562 2452 c-7 -5 -10 -16 -6 -25 4 -13 10 -14 29 -5 14 6 21 16 18
24 -6 16 -22 18 -41 6z"/>
<path d="M508 2429 c-11 -6 -15 -16 -11 -27 6 -14 4 -15 -9 -4 -18 14 -48 6
-48 -13 0 -23 14 -24 60 -3 55 25 52 22 44 42 -7 18 -12 19 -36 5z"/>
<path d="M2698 2382 c-26 -17 -26 -18 -7 -30 16 -10 24 -9 44 4 14 9 28 14 31
11 3 -3 -6 -11 -20 -19 l-26 -13 80 -73 80 -73 35 12 c19 7 35 16 35 19 0 17
-193 180 -213 180 -7 0 -24 -8 -39 -18z m102 -67 c-14 -7 -27 -11 -30 -9 -6 7
22 24 40 23 9 0 5 -6 -10 -14z m50 -35 c-8 -6 -22 -10 -30 -9 -9 0 -5 6 10 14
27 14 44 10 20 -5z m45 -40 c-11 -5 -27 -9 -35 -9 -9 0 -8 4 5 9 11 5 27 9 35
9 9 0 8 -4 -5 -9z"/>
<path d="M392 2372 c-7 -5 -10 -17 -7 -28 6 -17 5 -17 -7 -3 -13 16 -16 15
-57 -8 -2 -2 2 -9 9 -17 10 -14 18 -12 61 9 34 18 47 29 43 40 -7 17 -22 19
-42 7z"/>
<path d="M2296 2348 c-39 -20 -55 -33 -48 -40 6 -6 19 -5 39 5 19 10 34 12 44
6 12 -8 12 -10 -1 -19 -8 -5 -19 -11 -24 -13 -5 -2 -6 -8 -2 -15 5 -8 26 -2
71 20 40 20 61 36 55 42 -5 5 -20 4 -39 -4 -40 -16 -61 -3 -31 20 41 31 -1 30
-64 -2z"/>
<path d="M674 2355 c-4 -10 -13 -13 -24 -10 -12 4 -24 -2 -33 -15 -8 -12 -20
-18 -30 -15 -25 10 -31 -15 -9 -38 l21 -20 12 29 c18 40 17 39 39 19 21 -19
19 -21 45 53 6 18 -15 15 -21 -3z"/>
<path d="M2630 2349 c0 -5 5 -7 10 -4 6 3 10 8 10 11 0 2 -4 4 -10 4 -5 0 -10
-5 -10 -11z"/>
<path d="M252 2294 c-34 -21 -40 -29 -31 -40 10 -12 19 -10 60 13 47 25 58 45
28 50 -8 1 -33 -9 -57 -23z m28 -14 c0 -5 -2 -10 -4 -10 -3 0 -8 5 -11 10 -3
6 -1 10 4 10 6 0 11 -4 11 -10z"/>
<path d="M2401 2277 c-47 -22 -60 -32 -48 -38 15 -9 137 37 137 52 0 18 -30
13 -89 -14z"/>
<path d="M1277 2173 l-89 -118 54 -8 c29 -5 88 -7 130 -4 64 3 82 8 112 31 40
30 57 73 35 87 -15 9 -16 8 26 29 16 9 36 28 45 42 24 44 5 52 -118 56 l-107
2 -88 -117z m243 63 c0 -25 -42 -46 -93 -46 l-48 0 23 30 c19 26 28 30 70 30
35 0 48 -4 48 -14z m-101 -82 c21 -5 31 -12 31 -25 0 -31 -42 -50 -101 -47
l-53 3 33 38 c35 39 40 41 90 31z"/>
<path d="M458 2265 c-28 -16 -45 -55 -33 -74 10 -17 45 -13 77 10 22 16 28 28
26 48 -4 31 -31 37 -70 16z m40 -32 c-2 -20 -9 -29 -25 -31 -19 -3 -23 1 -23
21 0 25 11 35 38 36 9 1 12 -9 10 -26z"/>
<path d="M175 2246 c-19 -14 -13 -36 9 -36 8 0 19 6 25 14 18 21 -10 40 -34
22z"/>
<path d="M2466 2245 c-21 -7 -45 -20 -53 -28 -12 -12 -10 -18 16 -40 30 -25
64 -27 77 -5 10 15 -3 20 -24 9 -14 -7 -24 -7 -38 3 -17 13 -16 15 14 30 40
21 81 20 104 -1 25 -22 37 -7 12 17 -27 27 -63 32 -108 15z"/>
<path d="M2700 2238 c16 -14 21 -22 12 -25 -6 -3 -9 -10 -5 -16 3 -7 3 -9 -2
-5 -4 4 -17 3 -27 -3 -16 -9 -24 -7 -36 5 -13 13 -13 16 -2 16 7 0 11 2 8 6
-3 3 -21 -4 -39 -15 -34 -21 -34 -29 0 -11 14 7 23 4 37 -11 13 -15 19 -16 26
-7 6 10 8 9 8 -2 0 -13 1 -13 11 0 9 13 10 13 6 0 -2 -8 1 -30 9 -47 7 -18 10
-32 6 -31 -4 1 -14 -1 -22 -5 -8 -3 -44 -15 -79 -26 l-65 -21 -24 23 c-13 12
-26 21 -30 19 -3 -2 -9 5 -13 15 -7 17 -8 16 -8 -2 -1 -15 -4 -16 -10 -7 -4 7
-13 12 -19 10 -6 -2 -18 6 -26 17 -13 16 -15 17 -10 3 7 -21 -6 -23 -26 -5
-14 13 -6 2 73 -103 111 -147 166 -307 174 -510 8 -190 -26 -358 -107 -536
-45 -97 -45 -97 -88 -74 -21 11 -71 35 -112 54 -41 18 -118 54 -171 79 -52 24
-106 48 -120 52 -13 4 -66 28 -118 52 -92 42 -124 49 -85 17 13 -11 9 -10 -16
3 -19 10 -38 23 -42 28 -4 6 -8 6 -8 2 0 -4 -19 3 -42 16 -24 14 -128 68 -232
122 -248 128 -245 125 -235 150 4 11 7 36 7 55 l0 35 -7 -31 c-4 -17 -11 -35
-14 -41 -8 -12 -41 -10 -59 3 -7 6 -32 19 -56 29 -48 21 -65 37 -57 56 9 24
76 63 104 61 l26 -1 -25 14 c-40 23 -136 18 -205 -10 -57 -24 -61 -24 -112 -9
-107 31 -164 3 -110 -54 13 -15 27 -35 31 -46 3 -10 12 -16 20 -13 11 4 11 -2
-1 -35 -18 -53 -9 -89 30 -128 60 -59 174 -68 272 -21 60 28 61 28 63 7 1 -14
-10 -28 -31 -42 -79 -51 -192 -62 -268 -25 l-44 22 32 -30 c71 -66 187 -69
312 -8 25 12 54 20 65 18 26 -4 163 -66 406 -184 107 -51 224 -108 260 -124
276 -130 437 -207 448 -215 6 -6 12 -7 12 -3 0 4 6 2 13 -4 8 -6 16 -8 20 -5
3 3 3 -3 0 -14 -4 -18 10 -29 103 -76 60 -30 154 -79 209 -109 195 -104 373
-197 378 -197 10 0 56 88 100 192 43 101 101 268 95 273 -6 5 -120 36 -122 33
-1 -2 -14 -40 -29 -86 -28 -86 -103 -252 -113 -252 -3 0 -25 11 -49 25 l-43
26 34 76 c50 110 109 285 136 405 20 90 23 128 22 308 -1 188 -3 213 -27 303
-14 54 -42 134 -61 178 -39 91 -43 84 59 108 75 18 80 22 61 59 -17 34 -105
152 -143 193 -24 27 -25 27 -63 10 l-38 -16 32 -40 c43 -52 126 -175 126 -185
0 -8 -79 -25 -84 -18 -1 1 -22 35 -47 73 -43 68 -216 255 -235 255 -5 -1 2
-10 16 -22z m289 -82 c-2 -2 -18 -7 -34 -10 l-30 -6 30 14 c26 12 46 14 34 2z
m36 -45 c-15 -13 -62 -26 -50 -13 6 5 19 12 30 15 11 3 22 5 25 6 2 0 0 -3 -5
-8z m45 -50 c0 -9 -52 -22 -59 -15 -4 3 37 22 52 23 4 1 7 -3 7 -8z m29 -55
c-2 -2 -18 -7 -34 -10 l-30 -6 30 14 c26 12 46 14 34 2z m-319 -196 c37 -7 33
-8 -24 -4 -53 5 -67 3 -61 -7 5 -8 4 -10 -3 -5 -21 13 -13 26 16 25 15 0 47
-4 72 -9z m114 -26 c11 -29 6 -33 -79 -60 -67 -22 -87 -26 -97 -16 -9 9 -10
17 -1 30 7 12 8 24 1 35 -6 11 -5 17 1 17 15 0 26 -43 12 -48 -15 -5 -14 -32
2 -32 7 0 44 11 83 23 74 26 89 47 39 58 l-30 7 31 1 c21 1 34 -5 38 -15z
m-96 -6 c19 3 24 1 17 -6 -19 -20 -49 -18 -52 3 -1 11 0 15 3 9 2 -6 17 -9 32
-6z m132 -113 c0 -24 -2 -25 -75 -25 -75 0 -75 0 -75 -27 0 -31 -5 -28 -14 10
l-6 27 80 0 c64 0 80 3 80 15 0 12 -17 15 -94 15 l-94 0 8 -32 c14 -59 19 -63
121 -97 89 -29 100 -35 97 -54 -3 -19 -15 -24 -88 -39 -116 -23 -120 -23 -120
7 0 14 7 28 15 31 21 9 19 31 -5 44 -11 6 -19 20 -19 33 0 12 -4 40 -10 62 -6
22 -11 43 -11 48 0 4 47 7 105 7 l105 0 0 -25z m-1690 -253 c362 -185 684
-362 657 -362 -19 0 -488 230 -514 252 -7 6 -13 7 -13 3 0 -4 -16 5 -35 19
-19 15 -40 24 -47 20 -7 -4 -8 -3 -4 4 4 7 2 12 -4 12 -6 0 -29 11 -51 25 -22
14 -84 48 -138 76 -105 52 -153 89 -90 67 19 -6 126 -59 239 -116z m1613 8
c111 -16 116 -20 110 -77 -3 -27 -12 -54 -22 -61 -20 -16 -77 -9 -101 13 -13
12 -28 14 -59 9 -44 -7 -50 0 -31 37 6 11 22 19 38 20 26 1 26 1 -5 10 -26 8
-33 15 -33 34 0 29 3 29 103 15z m20 -163 c43 -12 78 -25 78 -29 -1 -5 -1 -19
-1 -33 0 -21 -5 -25 -32 -25 l-33 -1 28 -22 c28 -23 33 -42 18 -66 -7 -11 -26
-9 -107 14 -55 15 -102 31 -106 34 -4 4 -5 17 -1 30 5 19 11 22 36 18 27 -4
28 -3 12 10 -11 7 -22 13 -27 13 -4 0 -8 5 -8 10 0 6 17 10 38 11 l37 1 -32
10 c-31 10 -43 34 -27 51 8 7 12 6 127 -26z m-953 -161 c0 -9 -41 8 -52 22
-11 13 -8 12 20 -2 17 -9 32 -18 32 -20z m881 -15 c124 -43 120 -41 113 -65
-3 -11 -9 -24 -13 -28 -7 -8 -187 54 -202 69 -9 9 -1 53 10 53 4 0 45 -13 92
-29z m-2 -86 c91 -39 100 -49 81 -86 -8 -14 -22 -19 -58 -19 l-47 -1 41 -22
c36 -19 41 -25 33 -44 -8 -22 -8 -22 -98 19 -50 23 -89 43 -87 45 2 2 38 -12
81 -32 86 -39 95 -41 95 -22 0 7 -24 24 -52 37 l-53 24 68 4 c37 1 67 7 67 12
0 4 2 15 5 23 4 10 -17 24 -73 50 -94 43 -103 45 -109 30 -2 -6 21 -23 51 -36
61 -28 68 -36 32 -33 -13 0 -22 4 -20 8 3 4 -16 16 -41 27 -42 18 -45 22 -35
41 6 12 15 20 19 18 5 -2 49 -21 100 -43z m-121 -42 c-9 -2 -20 -17 -23 -34
-4 -16 -11 -27 -16 -24 -14 9 19 65 39 64 16 -1 16 -2 0 -6z m56 -2 c4 -5 -3
-7 -14 -4 -23 6 -26 13 -6 13 8 0 17 -4 20 -9z m-97 -105 c-16 -7 -33 -19 -39
-27 -8 -12 -9 -12 -5 1 4 15 44 40 62 39 6 0 -3 -6 -18 -13z m76 -10 c44 -19
90 -69 84 -93 -4 -15 -5 -15 -6 4 -1 22 -54 69 -101 90 -36 17 -16 16 23 -1z
m496 -88 c38 -14 17 -20 -28 -8 -23 6 -41 15 -41 21 0 10 16 7 69 -13z m-461
-13 c-3 -3 -9 2 -12 12 -6 14 -5 15 5 6 7 -7 10 -15 7 -18z m-8 -49 c0 -2 -8
-10 -17 -17 -16 -13 -17 -12 -4 4 13 16 21 21 21 13z m420 -22 c55 -22 51 -36
-5 -17 -25 8 -45 19 -45 24 0 12 3 12 50 -7z m-40 -90 c22 -9 40 -21 40 -26 0
-5 -3 -8 -7 -6 -5 2 -25 10 -45 18 -21 8 -38 18 -38 22 0 11 4 10 50 -8z
m-147 -116 c4 1 7 -2 7 -8 0 -6 -2 -10 -5 -10 -13 0 -95 45 -95 52 0 5 19 -2
43 -14 23 -12 45 -21 50 -20z m110 22 c20 -8 37 -18 37 -22 0 -11 -4 -10 -50
8 -22 9 -40 21 -40 26 0 5 3 8 8 6 4 -2 24 -10 45 -18z"/>
<path d="M2768 1553 c25 -18 30 -63 7 -63 -9 0 -15 -9 -15 -21 0 -17 5 -20 28
-15 15 3 58 11 95 17 93 15 87 34 -23 71 -95 32 -128 36 -92 11z m89 -29 c31
-8 19 -24 -18 -24 -19 0 -29 5 -29 15 0 16 12 18 47 9z"/>
<path d="M2762 1403 c2 -14 21 -21 83 -31 44 -7 81 -15 84 -17 2 -2 1 -11 -2
-20 -9 -22 -53 -19 -70 5 -12 17 -21 20 -56 14 -31 -5 -41 -11 -41 -26 0 -16
5 -18 35 -12 25 4 39 2 50 -10 22 -22 65 -31 84 -19 11 7 16 25 16 59 l0 48
-75 12 c-105 17 -112 17 -108 -3z"/>
<path d="M2860 1350 c0 -15 26 -23 46 -16 20 8 17 11 -18 20 -17 4 -28 2 -28
-4z"/>
<path d="M2750 1266 c0 -8 21 -19 48 -26 71 -19 73 -30 7 -30 l-60 0 53 -31
c29 -17 51 -33 50 -35 -2 -2 -26 3 -53 11 -62 19 -65 19 -65 -4 0 -14 18 -23
92 -44 50 -15 93 -26 94 -24 1 1 5 12 8 24 5 15 2 23 -11 27 -26 9 -71 47 -53
45 8 -1 30 -1 48 0 27 1 32 5 32 26 0 14 -3 25 -7 25 -5 0 -47 11 -95 24 -67
19 -88 21 -88 12z"/>
<path d="M2713 1084 c-3 -8 -3 -18 1 -21 11 -11 175 -70 181 -65 3 3 5 13 5
21 0 11 -28 26 -91 48 -75 26 -91 29 -96 17z"/>
<path d="M1018 2234 c-25 -8 -48 -21 -51 -29 -3 -7 -40 -66 -82 -130 -42 -65
-74 -119 -71 -122 13 -14 57 11 76 42 12 19 22 35 23 35 1 0 32 9 68 19 l67
19 11 -25 c8 -16 17 -23 29 -19 9 3 30 8 45 12 22 5 26 10 21 27 -9 28 -82
187 -86 186 -2 -1 -24 -8 -50 -15z m7 -105 c6 -23 2 -27 -33 -37 -56 -17 -56
-17 -21 34 32 47 43 48 54 3z"/>
<path d="M1618 2147 c-76 -56 -137 -105 -138 -108 0 -4 30 -18 68 -32 37 -14
83 -32 102 -40 33 -14 38 -14 59 2 l24 18 -67 24 c-36 13 -66 27 -66 30 0 4
17 19 37 35 l37 28 60 -22 c59 -20 62 -20 80 -3 18 18 17 19 -33 36 -28 9 -51
20 -51 25 0 5 14 18 31 30 l30 22 69 -24 c64 -23 72 -24 91 -10 21 15 17 17
-87 53 -60 21 -109 38 -109 38 0 0 -62 -46 -137 -102z"/>
<path d="M111 2206 c-8 -10 -8 -16 2 -25 17 -13 54 10 43 27 -10 16 -31 15
-45 -2z"/>
<path d="M59 2170 c-13 -10 -18 -19 -11 -20 6 0 12 -5 12 -11 0 -8 -5 -8 -15
1 -20 17 -42 -2 -43 -36 0 -14 3 -22 7 -17 3 5 27 22 53 38 52 33 55 37 34 54
-10 9 -19 7 -37 -9z"/>
<path d="M313 2179 c-9 -9 -9 -19 3 -40 17 -35 18 -35 61 -8 37 23 39 39 3 17
-16 -9 -24 -10 -27 -2 -11 30 -28 45 -40 33z"/>
<path d="M2540 2180 c0 -5 5 -10 11 -10 5 0 7 5 4 10 -3 6 -8 10 -11 10 -2 0
-4 -4 -4 -10z"/>
<path d="M2548 2156 c-52 -16 -65 -24 -59 -35 7 -11 15 -11 42 -2 26 9 36 9
47 -3 12 -11 9 -15 -18 -24 -17 -7 -29 -16 -25 -22 9 -14 17 -13 96 11 55 17
67 24 59 34 -8 10 -20 11 -43 4 -23 -7 -35 -5 -46 5 -12 13 -11 16 13 22 25 6
32 25 10 30 -5 1 -39 -8 -76 -20z"/>
<path d="M2661 2146 c-10 -12 -8 -13 8 -9 12 3 18 9 15 14 -7 12 -10 11 -23
-5z"/>
<path d="M670 2113 c-21 -20 -27 -32 -21 -42 8 -12 14 -12 40 -1 34 14 64 48
55 62 -10 16 -44 7 -74 -19z"/>
<path d="M2620 2130 c-9 -6 -10 -10 -3 -10 6 0 15 5 18 10 8 12 4 12 -15 0z"/>
<path d="M1998 2123 c-25 -6 -22 -20 7 -39 14 -9 25 -19 25 -23 0 -3 -68 -37
-150 -75 l-151 -69 22 -23 c13 -13 28 -24 35 -24 6 0 79 31 161 68 l150 69 36
-29 c33 -27 38 -28 62 -16 l25 14 -95 77 c-53 42 -99 76 -103 76 -4 -1 -15 -3
-24 -6z"/>
<path d="M2520 2100 c-8 -5 -10 -10 -5 -10 6 0 17 5 25 10 8 5 11 10 5 10 -5
0 -17 -5 -25 -10z"/>
<path d="M705 2067 c-22 -12 -41 -23 -43 -24 -5 -2 21 -152 29 -164 4 -7 20
-4 48 11 47 24 47 21 18 147 l-12 52 -40 -22z"/>
<path d="M480 1993 c-25 -9 -180 -126 -180 -136 0 -10 120 -187 127 -187 2 0
46 33 97 74 129 102 144 150 71 223 -33 33 -73 42 -115 26z m56 -77 c42 -42
44 -74 7 -107 -60 -54 -55 -54 -107 17 -27 36 -47 67 -45 68 20 19 85 56 96
56 8 0 30 -15 49 -34z"/>
<path d="M3118 1928 c-21 -6 -38 -14 -38 -18 0 -5 9 -30 21 -57 11 -26 34 -86
50 -133 l29 -85 47 3 c25 1 48 4 51 6 12 13 -100 298 -117 295 -3 -1 -23 -6
-43 -11z m42 -48 c-14 -4 -32 -8 -40 -9 -13 -1 -13 0 0 9 8 5 26 9 40 9 l25
-1 -25 -8z m35 -60 c-11 -5 -31 -9 -45 -9 -23 0 -23 1 -5 9 11 5 31 9 45 9 23
0 23 -1 5 -9z m30 -60 c-3 -5 -21 -10 -38 -9 -27 0 -29 2 -12 9 28 12 57 12
50 0z m24 -64 c-11 -9 -69 -14 -69 -6 0 6 17 10 37 10 20 0 34 -2 32 -4z"/>
<path d="M2070 1864 c-96 -18 -179 -34 -185 -34 -5 0 -16 -4 -24 -9 -12 -8 -8
-27 24 -110 36 -97 38 -101 64 -94 14 3 28 7 30 9 2 2 -7 33 -21 68 l-26 65
50 10 c74 16 76 15 102 -42 22 -51 25 -54 55 -49 17 2 31 5 31 7 0 1 -11 27
-24 58 l-25 55 37 6 c73 12 78 10 102 -46 30 -70 35 -75 69 -70 l30 4 -52 104
c-28 57 -54 104 -57 103 -3 0 -84 -16 -180 -35z"/>
<path d="M3125 1620 c-3 -5 -1 -10 4 -10 6 0 11 5 11 10 0 6 -2 10 -4 10 -3 0
-8 -4 -11 -10z"/>
<path d="M1972 1613 c-50 -10 -77 -167 -39 -225 24 -35 75 -58 131 -58 72 0
93 15 132 97 33 70 44 80 78 67 22 -8 22 -104 0 -145 -8 -17 -14 -32 -12 -34
2 -2 21 0 43 4 35 6 41 10 51 46 40 131 -16 235 -127 235 -51 0 -82 -29 -108
-99 -24 -66 -49 -83 -100 -65 -48 17 -50 66 -6 167 7 18 3 19 -43 10z"/>
<path d="M3204 1613 c-19 -4 -20 -6 -8 -75 7 -39 15 -115 19 -168 l7 -98 30
-6 c75 -15 78 -12 78 57 0 64 -24 249 -36 280 -6 17 -38 20 -90 10z m86 -53
c0 -5 -19 -9 -42 -9 l-43 2 35 7 c19 4 38 8 43 9 4 0 7 -3 7 -9z m-7 -77 c-13
-2 -33 -2 -45 0 -13 2 -3 4 22 4 25 0 35 -2 23 -4z m27 -73 c0 -5 -18 -10 -40
-10 -22 0 -40 5 -40 10 0 6 18 10 40 10 22 0 40 -4 40 -10z m6 -77 c-7 -7 -77
-5 -85 3 -2 2 17 4 44 4 27 0 45 -3 41 -7z"/>
<path d="M1644 1582 c-6 -4 -14 -44 -17 -88 -3 -50 -13 -100 -26 -128 -17 -39
-18 -48 -6 -52 8 -3 19 -3 24 1 20 12 51 137 51 206 0 68 -4 76 -26 61z"/>
<path d="M1273 1491 c-1 -43 2 -50 23 -60 33 -15 44 -14 19 2 -14 8 -20 24
-21 50 -2 58 -19 64 -21 8z"/>
<path d="M1088 1314 c-64 -33 -159 -42 -212 -20 -22 9 -41 14 -44 11 -6 -6 69
-40 81 -37 4 1 17 -3 28 -9 15 -8 28 -8 47 0 15 6 37 13 49 15 32 7 90 35 104
52 16 20 2 16 -53 -12z"/>
<path d="M3150 1260 c0 -5 4 -10 9 -10 6 0 13 5 16 10 3 6 -1 10 -9 10 -9 0
-16 -4 -16 -10z"/>
<path d="M601 1170 c-46 -90 -48 -85 46 -94 74 -7 94 9 23 18 -28 4 -50 9 -50
12 0 2 14 32 31 66 24 48 28 63 17 69 -22 14 -24 12 -67 -71z"/>
<path d="M3211 1198 c-2 -61 -15 -149 -36 -250 -8 -38 -15 -73 -15 -77 0 -5
20 -14 44 -20 24 -6 50 -13 59 -17 12 -4 18 7 27 48 19 89 40 250 40 311 l0
57 -58 0 -58 0 -3 -52z m68 -14 c45 -9 38 -20 -9 -16 -22 2 -40 8 -40 13 0 11
7 11 49 3z m26 -97 c7 -6 -1 -8 -24 -3 -18 3 -40 6 -47 6 -8 0 -14 4 -14 9 0
12 71 2 85 -12z m-10 -88 c-3 -4 -22 -3 -42 2 -21 5 -42 9 -46 9 -5 0 -6 4 -3
9 3 4 25 4 50 -2 25 -6 43 -14 41 -18z m-20 -82 c7 -6 -1 -8 -24 -3 -18 3 -40
6 -47 6 -8 0 -14 5 -14 10 0 13 70 2 85 -13z"/>
<path d="M0 1208 c0 -37 16 -55 37 -42 28 17 26 32 -6 49 -30 15 -31 15 -31
-7z"/>
<path d="M1219 1163 c-58 -151 -56 -143 -30 -143 14 0 26 19 50 78 37 91 37
92 11 92 -13 0 -24 -10 -31 -27z"/>
<path d="M773 1165 c-11 -8 -26 -28 -31 -45 -9 -26 -8 -32 11 -45 25 -17 97
-20 97 -4 0 6 -7 8 -16 5 -26 -10 -54 3 -54 25 0 18 6 20 52 17 44 -2 53 0 56
15 2 10 -2 24 -8 32 -16 19 -80 19 -107 0z m86 -8 c15 -19 4 -27 -36 -27 -36
0 -43 13 -15 29 23 14 38 13 51 -2z"/>
<path d="M916 1113 c4 -32 8 -60 10 -62 2 -2 31 21 63 52 33 32 54 57 48 57
-6 0 -26 -14 -43 -31 l-33 -32 -6 37 c-5 26 -12 36 -26 36 -17 0 -19 -5 -13
-57z"/>
<path d="M1085 1151 c-25 -11 -51 -40 -59 -68 -5 -16 -1 -26 16 -37 26 -19 94
-21 104 -5 5 8 -1 10 -19 5 -34 -8 -57 2 -57 26 0 17 6 19 53 16 48 -3 52 -1
55 21 2 13 0 27 -5 31 -14 13 -67 19 -88 11z m70 -31 c0 -10 -12 -16 -37 -18
-39 -3 -47 5 -26 26 17 17 63 11 63 -8z"/>
<path d="M242 1068 l-242 -79 0 -30 c0 -16 4 -29 9 -29 5 0 81 24 170 54 88
30 163 51 166 46 3 -5 20 -4 37 2 29 10 33 9 47 -13 54 -83 136 -144 241 -180
51 -17 89 -22 180 -23 127 -1 201 14 325 67 39 16 89 36 112 44 l43 15 97 -63
c142 -91 450 -288 918 -589 226 -144 417 -269 426 -276 17 -16 93 -19 87 -4
-1 5 -174 128 -383 272 -209 145 -416 289 -460 319 -44 31 -192 134 -330 229
-137 95 -268 186 -291 202 l-40 29 -95 -50 c-123 -64 -212 -91 -329 -98 -105
-6 -199 11 -271 48 -59 29 -125 94 -149 145 -12 24 -23 44 -23 43 -1 -1 -111
-37 -245 -81z"/>
<path d="M360 1006 c0 -2 8 -10 18 -17 15 -13 16 -12 3 4 -13 16 -21 21 -21
13z"/>
<path d="M3858 984 c-5 -4 -8 -16 -8 -27 0 -38 -52 -252 -84 -347 -41 -118
-125 -309 -183 -414 -23 -43 -43 -80 -43 -83 0 -2 -13 -24 -30 -48 -16 -24
-30 -48 -30 -54 0 -7 31 -11 83 -11 82 0 82 0 101 33 40 68 117 228 146 303
18 44 38 93 46 109 12 25 14 81 12 289 -2 142 -6 254 -10 250z"/>
<path d="M3080 870 c0 -5 7 -10 15 -10 8 0 15 5 15 10 0 6 -7 10 -15 10 -8 0
-15 -4 -15 -10z"/>
<path d="M2945 600 c-3 -5 -1 -10 4 -10 6 0 11 5 11 10 0 6 -2 10 -4 10 -3 0
-8 -4 -11 -10z"/>
<path d="M2007 428 c7 -8 10 -18 6 -22 -14 -14 -11 -35 5 -29 11 5 13 3 7 -6
-6 -10 -3 -11 13 -2 27 14 33 14 60 -7 21 -17 22 -18 3 -18 -11 0 -19 5 -18
11 1 5 -5 10 -13 10 -12 0 -15 -22 -18 -123 -1 -70 -7 -122 -12 -122 -6 0 -10
-20 -10 -45 0 -71 17 -75 342 -75 155 0 267 4 264 9 -6 9 -90 66 -398 272 -81
55 -149 103 -153 108 -3 6 -13 7 -22 4 -9 -4 -14 -2 -10 3 3 6 -8 19 -26 29
-24 14 -29 15 -20 3z m28 -28 c-3 -5 -1 -10 6 -10 7 0 10 -2 7 -5 -3 -3 -13
-2 -22 1 -14 5 -15 9 -4 15 17 11 20 11 13 -1z m68 -77 c-28 -11 -11 -21 32
-19 24 2 42 -1 40 -5 -3 -4 -17 -6 -33 -4 -15 2 -34 -1 -43 -6 -13 -6 -16 -4
-14 14 3 28 3 27 18 26 10 0 10 -2 0 -6z"/>
<path d="M3850 260 c0 -6 -27 -65 -60 -132 -33 -66 -60 -122 -60 -124 0 -2 20
-4 44 -4 42 0 45 2 56 34 6 19 18 40 26 46 17 15 21 190 4 190 -5 0 -10 -5
-10 -10z"/>
<path d="M3846 25 c-9 -26 -7 -32 5 -12 6 10 9 21 6 23 -2 3 -7 -2 -11 -11z"/>
</g>
</svg>
