<?xml version="1.0" standalone="no"?>
<!DOCTYPE svg PUBLIC "-//W3C//DTD SVG 20010904//EN"
 "http://www.w3.org/TR/2001/REC-SVG-20010904/DTD/svg10.dtd">
<svg version="1.0" xmlns="http://www.w3.org/2000/svg"
 width="2000.000000pt" height="2000.000000pt" viewBox="0 0 2000.000000 2000.000000"
 preserveAspectRatio="xMidYMid meet">

<g transform="translate(0.000000,2000.000000) scale(0.100000,-0.100000)"
fill="#000000" stroke="none">
<path d="M9227 18620 c-1144 -90 -2180 -638 -2809 -1486 -87 -117 -210 -316
-264 -426 -21 -43 -44 -78 -50 -78 -35 0 -149 45 -204 81 -178 115 -280 308
-280 529 0 91 20 219 45 291 21 59 11 60 -15 2 -69 -151 -101 -296 -102 -448
0 -233 78 -426 230 -566 l59 -56 -111 -46 c-61 -26 -160 -76 -220 -112 -747
-444 -1109 -1285 -906 -2105 35 -141 65 -223 125 -338 150 -290 399 -471 693
-505 72 -8 105 -16 127 -33 133 -97 359 -146 520 -111 39 8 77 18 86 21 11 5
35 -17 84 -76 126 -151 198 -227 380 -400 277 -262 663 -675 704 -751 36 -67
-64 -200 -174 -232 -67 -20 -62 -38 7 -25 66 13 118 42 161 89 20 22 38 37 41
33 2 -4 7 -32 11 -63 14 -111 -29 -230 -125 -346 -100 -120 -123 -159 -128
-217 -11 -130 58 -224 223 -305 121 -58 174 -107 240 -216 200 -332 376 -538
633 -743 180 -143 268 -196 414 -246 189 -65 376 -92 582 -83 463 19 978 242
1391 602 60 52 75 61 79 47 2 -9 18 -62 34 -117 60 -200 94 -393 106 -605 l6
-95 -257 -210 c-644 -526 -823 -683 -1007 -883 -301 -326 -477 -609 -587 -944
-60 -182 -81 -311 -86 -538 -4 -150 -8 -199 -19 -211 -8 -9 -19 -40 -23 -70
-11 -70 -26 -81 -236 -174 -93 -42 -181 -82 -195 -89 -23 -14 -28 -11 -92 50
-82 77 -142 99 -250 92 -72 -6 -177 -48 -212 -87 -17 -19 -18 -19 -72 0 -86
30 -137 34 -207 15 -122 -33 -216 -136 -217 -236 l0 -45 -57 -2 c-71 -2 -121
-22 -174 -70 -50 -45 -78 -99 -86 -163 -6 -52 -16 -60 -76 -60 -38 0 -99 -33
-129 -68 -14 -16 -30 -52 -37 -78 -38 -144 -40 -148 -105 -222 -92 -104 -101
-127 -101 -247 0 -84 4 -107 22 -141 l22 -42 -47 -11 c-138 -35 -234 -131
-266 -270 -13 -57 -22 -71 -88 -140 -96 -99 -110 -120 -158 -237 -42 -102 -70
-210 -70 -270 0 -19 -9 -66 -19 -104 -56 -201 -25 -390 91 -566 l46 -69 6
-130 c24 -454 120 -823 317 -1217 152 -303 330 -554 576 -809 97 -100 103
-109 117 -170 16 -66 41 -463 51 -809 3 -107 8 -210 11 -227 5 -33 6 -33 59
-33 l55 0 0 53 c0 110 -52 765 -71 901 -5 38 -7 71 -5 73 3 3 32 -18 65 -45
63 -53 244 -182 255 -182 27 0 -15 56 -136 180 -345 352 -501 534 -659 773
-89 135 -225 398 -287 558 -109 280 -183 616 -198 906 -7 113 -6 122 15 150
14 18 24 51 28 84 5 47 9 57 34 71 20 12 32 30 41 61 10 38 15 45 37 45 54 0
96 98 95 227 0 49 -8 77 -43 155 -54 119 -91 216 -91 239 0 13 20 -1 68 -49
128 -125 225 -150 266 -66 17 34 17 45 7 89 -6 28 -36 89 -66 137 -79 125
-100 219 -72 326 18 68 211 354 239 354 6 0 92 -40 192 -90 188 -93 371 -161
491 -181 39 -6 138 -11 220 -11 196 0 300 21 442 93 l103 51 67 -11 c110 -19
204 -48 458 -141 931 -342 1674 -448 2389 -339 255 38 473 105 667 206 176 91
274 183 368 347 51 90 244 503 342 734 277 653 467 1345 545 1992 22 180 30
702 15 882 -27 301 -81 558 -164 769 -134 343 -271 509 -471 571 -96 30 -256
30 -369 0 -195 -53 -346 -150 -545 -352 -157 -158 -216 -239 -346 -473 -42
-75 -121 -211 -175 -300 -188 -312 -272 -482 -319 -643 -69 -232 -70 -476 -3
-667 27 -78 76 -161 105 -180 l23 -15 -68 -269 c-37 -147 -90 -378 -117 -512
l-50 -244 -138 -2 c-203 -3 -343 -23 -1339 -195 -259 -44 -314 -51 -405 -48
-138 4 -154 14 -236 142 -35 55 -64 103 -64 108 0 12 150 108 230 148 36 18
91 48 124 68 l58 35 24 -30 c24 -32 169 -156 217 -188 50 -32 39 -8 -24 51
-100 96 -205 246 -193 277 8 23 39 30 66 16 13 -6 58 -41 102 -76 90 -73 148
-109 191 -118 24 -6 18 1 -32 34 -127 85 -208 200 -233 329 -19 97 -7 332 23
462 134 560 411 946 1072 1490 143 118 337 278 430 355 94 78 370 307 615 510
245 203 505 420 579 483 239 205 703 494 989 616 46 20 88 33 93 30 6 -3 20
-22 33 -42 21 -35 23 -51 29 -242 8 -246 19 -301 111 -559 80 -221 95 -274
140 -507 135 -691 219 -1485 267 -2514 l12 -255 -27 -175 c-43 -278 -90 -496
-202 -940 -181 -720 -218 -938 -218 -1295 1 -417 47 -659 264 -1390 174 -584
215 -776 241 -1115 21 -271 2 -518 -66 -895 -36 -199 -109 -659 -121 -764 l-7
-61 59 0 59 0 73 378 c84 430 113 608 136 807 60 544 16 877 -219 1655 -52
173 -95 321 -95 329 0 8 75 -60 168 -150 168 -166 240 -219 300 -219 l24 0 -7
122 c-4 67 -11 135 -16 152 l-8 31 20 -25 c11 -14 66 -76 122 -139 56 -63 136
-157 177 -211 94 -121 169 -208 186 -214 17 -6 41 67 60 181 16 96 29 401 44
1036 24 1006 -41 2114 -186 3132 -88 620 -255 1470 -385 1959 -27 104 -48 191
-45 193 2 3 31 -13 63 -35 87 -59 348 -211 428 -248 179 -85 307 -83 409 7 58
51 110 156 161 324 110 361 164 485 262 597 32 37 108 112 169 167 173 155
254 276 262 392 8 103 -36 177 -132 226 -70 35 -291 107 -411 133 -89 19 -279
49 -312 50 -9 0 -13 16 -13 48 0 26 -5 88 -11 137 -23 192 -57 235 -183 235
-138 0 -499 -65 -711 -127 -145 -42 -401 -140 -498 -190 -74 -39 -98 -46 -136
-44 -36 2 -55 -4 -84 -23 -21 -14 -40 -26 -42 -26 -2 0 -9 26 -15 58 -26 124
-88 191 -165 176 -32 -6 -132 -53 -212 -100 -17 -10 -34 -16 -36 -14 -2 3 -33
75 -70 161 -164 390 -245 670 -296 1024 -21 143 -44 385 -38 392 2 1 21 -22
42 -53 69 -100 226 -248 340 -320 23 -14 18 -7 -18 30 -119 121 -207 311 -257
556 -36 175 -28 345 26 531 2 9 23 22 47 29 57 17 189 84 261 133 79 53 194
164 258 248 29 37 53 67 54 66 1 -1 -2 -56 -7 -122 -12 -149 2 -340 36 -482
96 -404 350 -690 743 -839 237 -90 348 -114 532 -114 317 0 580 106 789 319
71 72 142 165 178 234 22 40 22 42 4 60 -18 18 -20 18 -72 -9 -66 -34 -153
-38 -209 -9 -194 100 -311 328 -314 610 0 102 2 116 31 186 58 139 169 362
287 574 319 571 396 809 396 1217 0 245 -35 458 -116 698 -179 532 -538 909
-971 1019 -333 85 -702 23 -985 -166 -86 -58 -203 -180 -248 -260 -19 -35 -37
-63 -40 -63 -3 0 -18 28 -33 63 -44 101 -202 371 -293 502 -539 775 -1297
1313 -2159 1535 -298 76 -536 108 -855 114 -118 3 -263 1 -323 -4z m3800
-2455 c26 -47 84 -223 124 -384 21 -81 29 -137 29 -199 0 -47 -3 -82 -7 -79
-3 4 -19 69 -35 145 -31 152 -93 371 -138 488 -24 64 -26 75 -12 72 9 -2 27
-21 39 -43z m233 -698 c0 -34 -34 -102 -55 -110 -20 -8 -19 -4 5 35 11 18 23
55 26 81 7 51 24 47 24 -6z m-4432 -1201 c425 -231 944 -411 1352 -468 85 -12
158 -26 161 -31 3 -4 9 -79 12 -165 23 -566 135 -941 373 -1248 136 -175 350
-325 514 -359 33 -7 31 -5 -30 40 -179 132 -310 321 -394 566 -127 372 -122
796 14 1154 l11 28 30 -49 c39 -62 78 -104 98 -104 8 0 43 29 77 65 136 139
226 145 340 23 59 -62 74 -106 50 -143 -17 -26 -39 -33 -156 -44 -68 -7 -87
-13 -118 -38 -20 -17 -47 -47 -59 -69 -64 -111 21 -256 148 -253 l44 1 -49 9
c-85 14 -122 72 -105 165 10 55 46 99 93 113 17 5 66 13 109 17 117 10 167 51
167 139 0 51 -43 127 -100 179 -123 111 -250 101 -384 -30 -66 -65 -85 -60
-58 14 l17 44 120 43 c236 83 341 123 420 159 90 42 88 42 122 -40 10 -24 21
-44 26 -44 12 0 8 46 -9 96 -8 25 -14 47 -12 49 17 16 181 105 185 101 14 -13
44 -151 55 -248 31 -280 -67 -582 -266 -819 -70 -83 -159 -159 -228 -195 -26
-13 -50 -24 -53 -24 -3 0 -5 17 -5 38 -1 115 -142 203 -252 154 -138 -61 -155
-244 -30 -328 73 -50 167 -39 228 25 21 23 50 42 68 45 52 10 147 60 218 114
l67 52 98 0 c86 0 141 9 218 33 19 7 20 2 20 -151 1 -120 5 -177 20 -242 15
-64 19 -113 17 -200 -13 -551 115 -1184 332 -1652 l45 -97 -102 -62 c-253
-155 -433 -292 -1087 -828 -135 -110 -248 -201 -251 -201 -3 0 -13 56 -23 125
-28 200 -105 476 -168 600 l-25 49 81 91 c102 112 192 226 259 324 60 89 157
251 157 263 0 4 -48 -47 -107 -114 -221 -254 -491 -514 -703 -679 -327 -255
-722 -435 -1073 -490 -158 -24 -414 3 -620 67 -115 36 -305 132 -416 211 -182
131 -442 415 -576 630 -109 176 -151 218 -288 289 -126 66 -186 116 -217 178
-33 69 -25 103 50 197 90 114 176 327 187 460 15 195 -84 343 -502 748 -344
335 -582 580 -668 686 -239 299 -349 529 -410 859 -17 90 -24 92 78 -24 119
-136 298 -274 475 -368 474 -250 1034 -239 1505 31 280 159 494 373 637 636
l17 31 53 -33 c29 -19 108 -64 176 -101z m2102 -466 c0 -5 -4 -10 -10 -10 -5
0 -10 5 -10 10 0 6 5 10 10 10 6 0 10 -4 10 -10z m297 -760 c89 -54 94 -165
11 -235 -35 -30 -102 -34 -149 -10 -62 33 -89 128 -54 196 34 64 128 89 192
49z m3216 -2115 c16 -15 32 -103 41 -216 l5 -66 -257 -6 c-329 -7 -599 -41
-864 -108 -64 -16 -121 -29 -126 -29 -9 0 -37 89 -30 95 2 1 68 10 148 19 273
32 608 95 844 160 100 28 116 38 100 64 -8 13 -28 18 -78 20 -61 3 -66 1 -66
-18 0 -11 -2 -20 -3 -20 -2 0 -79 -20 -172 -45 -334 -89 -783 -175 -797 -152
-4 7 -4 15 0 19 14 13 313 118 451 157 235 67 530 121 768 139 12 1 28 -5 36
-13z m-1363 -342 c22 -20 33 -40 37 -70 5 -38 1 -49 -45 -116 -27 -42 -60
-103 -73 -136 -13 -34 -27 -61 -30 -61 -14 0 -29 130 -29 245 0 108 2 121 22
142 30 32 79 31 118 -4z m1440 -33 c233 -21 444 -68 640 -141 183 -69 224
-113 201 -216 -19 -83 -79 -162 -252 -331 -258 -252 -282 -293 -414 -697 -50
-153 -99 -284 -118 -315 -81 -136 -171 -135 -419 6 -231 130 -440 282 -723
526 -271 234 -244 202 -318 378 -91 220 -90 211 -15 152 87 -68 275 -192 448
-295 133 -79 190 -103 190 -78 0 6 -76 53 -168 105 -93 52 -209 122 -258 154
-89 59 -204 156 -204 173 0 15 77 10 158 -10 170 -43 340 -68 650 -95 59 -5
63 11 5 19 -108 15 -225 36 -298 55 -43 11 -140 29 -215 40 -113 16 -384 81
-398 94 -9 10 22 90 46 117 31 35 84 48 292 70 194 22 884 19 1060 -4 226 -30
328 -36 419 -27 94 10 111 21 111 75 0 82 -75 117 -351 164 -353 61 -738 51
-1209 -30 -96 -17 -190 -33 -209 -36 -53 -9 -34 20 22 34 135 34 621 104 802
116 120 8 420 6 525 -3z m-5 -138 c165 -26 256 -47 314 -73 40 -18 43 -22 26
-29 -35 -15 -241 -11 -414 7 -234 25 -907 25 -1131 0 -85 -9 -172 -20 -192
-23 -40 -6 -46 1 -25 29 17 22 370 79 667 107 167 15 607 5 755 -18z m-2125
-572 c375 -60 613 -547 662 -1357 48 -796 -193 -1856 -661 -2910 -222 -500
-340 -674 -556 -815 -282 -184 -839 -288 -1380 -258 -518 29 -983 135 -1608
366 -256 95 -374 129 -494 144 l-82 10 -81 -40 c-339 -170 -652 -154 -1130 58
-74 33 -162 67 -195 77 -33 9 -86 27 -118 38 -50 19 -59 26 -67 57 -13 48 -13
68 6 129 12 42 31 69 91 132 l76 79 6 68 c7 71 19 98 66 144 27 27 58 39 137
52 50 9 64 25 71 85 14 122 111 205 232 200 70 -3 85 10 85 73 0 62 20 101 71
138 91 65 198 61 354 -13 110 -53 161 -71 182 -63 14 6 13 9 -6 30 -12 13 -48
38 -81 57 -33 19 -59 36 -60 39 0 3 17 16 38 30 33 22 47 25 122 24 61 0 95
-6 119 -19 52 -27 129 -111 235 -259 108 -150 119 -158 249 -183 143 -27 352
-14 662 41 143 26 397 69 565 97 168 27 350 59 405 70 140 30 387 31 543 5 77
-14 115 -17 123 -9 12 12 -72 46 -162 65 l-61 13 6 65 c16 168 182 880 311
1330 96 335 250 805 361 1100 24 63 41 116 40 118 -4 4 -191 -419 -246 -558
-83 -208 -172 -458 -241 -674 -38 -121 -71 -221 -73 -223 -7 -7 -46 54 -71
110 -103 224 -84 479 57 802 94 215 360 695 486 880 277 407 603 639 932 664
8 0 44 -4 80 -9z m842 -413 l47 -42 35 -155 c20 -85 44 -198 55 -250 38 -187
119 -490 120 -454 1 12 -149 677 -173 769 -8 32 -14 60 -12 62 1 1 40 -31 87
-73 46 -42 120 -104 164 -139 l81 -63 87 -399 c106 -483 161 -763 221 -1118
223 -1337 319 -2732 276 -4030 -10 -297 -24 -593 -36 -732 l-6 -72 -103 107
c-56 59 -130 141 -164 182 -97 116 -297 338 -374 413 l-69 68 16 407 c80 2022
2 3619 -245 5017 -22 127 -44 293 -49 370 -5 77 -12 148 -14 158 -6 25 4 21
56 -26z m165 -4184 c-6 -659 -11 -847 -38 -1430 l-12 -262 55 -73 c30 -40 93
-116 140 -169 l84 -96 3 -129 2 -128 -23 19 c-12 11 -97 88 -188 170 -91 83
-175 157 -186 165 -34 24 -106 331 -138 585 -54 436 -19 739 184 1555 37 151
78 321 91 378 12 56 24 102 27 102 3 0 2 -309 -1 -687z m-6747 -278 c0 -3 -22
-38 -48 -78 -27 -40 -59 -103 -71 -140 -20 -60 -22 -80 -16 -165 8 -110 25
-158 98 -266 44 -66 66 -121 53 -134 -21 -20 -161 95 -211 173 -85 134 -101
262 -51 420 35 113 61 143 161 182 31 12 85 17 85 8z m-320 -550 c8 -18 13
-80 14 -150 1 -115 3 -125 48 -257 49 -143 56 -209 28 -243 -33 -40 -68 -3
-173 180 -85 148 -109 388 -52 509 10 20 35 56 58 82 l41 47 12 -69 c7 -38 17
-82 24 -99z m-90 -610 c23 -38 56 -87 72 -107 24 -31 27 -41 18 -58 -14 -26
-22 -25 -58 5 -69 58 -162 260 -178 385 l-6 55 54 -105 c30 -58 74 -136 98
-175z m-187 28 c32 -95 90 -197 144 -254 39 -42 43 -51 43 -98 0 -28 -4 -51
-10 -51 -15 0 -98 109 -131 172 -32 63 -64 174 -74 258 -8 68 -4 64 28 -27z"/>
<path d="M8145 13433 c-359 -21 -648 -89 -890 -209 -133 -65 -312 -187 -349
-237 -29 -39 -25 -95 9 -124 14 -13 35 -23 45 -23 11 0 55 32 97 71 275 251
709 426 1283 518 50 8 46 9 -45 8 -55 0 -122 -2 -150 -4z"/>
<path d="M8320 12791 c-267 -273 -397 -371 -590 -442 l-75 -27 -61 66 c-67 72
-100 81 -39 10 41 -48 118 -199 136 -270 12 -44 11 -49 -19 -111 -18 -36 -51
-82 -73 -102 -33 -30 -37 -36 -18 -30 98 29 163 84 210 178 36 71 56 97 76 97
11 0 11 -4 -1 -27 -7 -16 -17 -44 -21 -63 -6 -32 -6 -33 7 -15 8 11 25 39 38
62 13 24 25 41 27 40 2 -2 -4 -26 -12 -52 -8 -27 -13 -51 -11 -52 2 -2 30 37
62 87 57 87 85 113 92 90 2 -6 21 15 42 47 21 32 84 109 140 172 55 62 113
137 127 165 37 72 75 177 67 185 -3 3 -36 -28 -72 -69 -242 -276 -465 -443
-633 -475 -31 -6 -36 -4 -47 21 -7 14 -11 27 -10 29 2 1 33 10 71 19 136 37
276 121 420 256 113 106 285 308 255 299 -2 0 -41 -40 -88 -88z"/>
<path d="M8635 10639 c-151 -136 -328 -282 -358 -297 -15 -8 -41 -12 -58 -10
-23 4 -29 1 -29 -14 0 -30 43 -50 92 -43 27 4 61 0 93 -9 104 -32 181 -12 259
69 54 55 92 132 112 223 21 101 17 163 -10 161 -6 0 -51 -36 -101 -80z m10
-133 c-61 -92 -171 -171 -265 -191 -43 -9 -45 -10 105 103 66 49 136 104 155
120 19 17 37 29 38 27 2 -2 -13 -29 -33 -59z"/>
</g>
</svg>
